<?xml version="1.0" encoding="UTF-8"?>
<svg xmlns="http://www.w3.org/2000/svg" xmlns:xlink="http://www.w3.org/1999/xlink" width="24px" height="24px" viewBox="0 0 24 24" version="1.1">
<g id="surface1">
<rect x="0" y="0" width="24" height="24" style="fill:rgb(98.039216%,98.823529%,98.823529%);fill-opacity:1;stroke:none;"/>
<path style=" stroke:none;fill-rule:nonzero;fill:rgb(55.686275%,68.235294%,58.431373%);fill-opacity:1;" d="M 1.828125 0.046875 L 1.828125 0.09375 L 22.125 0.09375 C 21.65625 -0.101562 20.855469 0.046875 20.34375 0.046875 Z M 1.828125 0.046875 "/>
<path style=" stroke:none;fill-rule:nonzero;fill:rgb(1.176471%,59.607843%,54.117647%);fill-opacity:1;" d="M 22.125 0.0820312 C 20.433594 0.0078125 18.710938 0.09375 17.015625 0.09375 L 3.1875 0.09375 C 2.738281 0.09375 2.167969 0 1.734375 0.125 C 1.300781 0.25 0.863281 0.644531 0.585938 0.984375 C 0.015625 1.679688 0.09375 2.335938 0.09375 3.1875 L 0.09375 19.078125 C 0.09375 20.550781 -0.3125 22.367188 0.9375 23.417969 C 1.175781 23.617188 1.503906 23.878906 1.828125 23.914062 C 3.539062 24.105469 5.398438 23.90625 7.125 23.90625 L 21 23.90625 C 21.394531 23.90625 21.941406 24.007812 22.3125 23.882812 C 22.84375 23.703125 23.324219 23.238281 23.628906 22.78125 C 23.996094 22.234375 23.90625 21.675781 23.90625 21.046875 L 23.90625 4.828125 C 23.90625 3.375 24.296875 1.621094 23.0625 0.582031 C 22.8125 0.375 22.464844 0.0976562 22.125 0.0820312 Z M 22.125 0.0820312 "/>
<path style=" stroke:none;fill-rule:nonzero;fill:rgb(55.686275%,68.235294%,58.431373%);fill-opacity:1;" d="M 22.203125 0.0625 L 22.234375 0.078125 L 22.203125 0.0625 M 1.6875 0.09375 L 1.734375 0.140625 L 1.6875 0.09375 M 22.3125 0.09375 L 22.359375 0.140625 L 22.3125 0.09375 M 1.59375 0.140625 L 1.640625 0.1875 L 1.59375 0.140625 M 22.4375 0.15625 L 22.46875 0.171875 L 22.4375 0.15625 M 1.5 0.1875 L 1.546875 0.234375 L 1.5 0.1875 M 22.5 0.1875 L 22.546875 0.234375 L 22.5 0.1875 M 1.40625 0.234375 L 1.453125 0.28125 L 1.40625 0.234375 M 1.359375 0.28125 L 1.40625 0.328125 L 1.359375 0.28125 M 22.640625 0.28125 L 22.6875 0.328125 L 22.640625 0.28125 M 1.265625 0.328125 L 1.3125 0.375 L 1.265625 0.328125 M 1.203125 0.390625 L 1.234375 0.40625 L 1.203125 0.390625 M 1.125 0.421875 L 1.171875 0.46875 L 1.125 0.421875 M 1.078125 0.46875 L 1.125 0.515625 L 1.078125 0.46875 M 22.921875 0.46875 L 22.96875 0.515625 L 22.921875 0.46875 M 1.03125 0.515625 L 1.078125 0.5625 L 1.03125 0.515625 M 22.96875 0.515625 L 23.015625 0.5625 L 22.96875 0.515625 M 23.0625 0.5625 L 23.109375 0.609375 L 23.0625 0.5625 M 23.109375 0.609375 L 23.15625 0.65625 L 23.109375 0.609375 M 23.203125 0.703125 L 23.25 0.75 L 23.203125 0.703125 M 0.75 0.75 L 0.796875 0.796875 L 0.75 0.75 M 23.25 0.75 L 23.296875 0.796875 L 23.25 0.75 M 23.296875 0.796875 L 23.34375 0.84375 L 23.296875 0.796875 M 23.34375 0.84375 L 23.390625 0.890625 L 23.34375 0.84375 M 23.390625 0.890625 L 23.4375 0.9375 L 23.390625 0.890625 M 0.5625 0.9375 L 0.609375 0.984375 L 0.5625 0.9375 M 23.4375 0.984375 L 23.484375 1.03125 L 23.4375 0.984375 M 0.515625 1.03125 L 0.5625 1.078125 L 0.515625 1.03125 M 23.484375 1.03125 L 23.53125 1.078125 L 23.484375 1.03125 M 0.46875 1.078125 L 0.515625 1.125 L 0.46875 1.078125 M 0.421875 1.125 L 0.46875 1.171875 L 0.421875 1.125 M 0.390625 1.203125 L 0.40625 1.234375 L 0.390625 1.203125 M 0.328125 1.265625 L 0.375 1.3125 L 0.328125 1.265625 M 23.671875 1.3125 L 23.71875 1.359375 L 23.671875 1.3125 M 0.28125 1.359375 L 0.328125 1.40625 L 0.28125 1.359375 M 0.234375 1.40625 L 0.28125 1.453125 L 0.234375 1.40625 M 23.765625 1.453125 L 23.8125 1.5 L 23.765625 1.453125 M 0.1875 1.5 L 0.234375 1.546875 L 0.1875 1.5 M 23.828125 1.53125 L 23.84375 1.5625 L 23.828125 1.53125 M 0.140625 1.59375 L 0.1875 1.640625 L 0.140625 1.59375 M 23.859375 1.640625 L 23.90625 1.6875 L 23.859375 1.640625 M 0.09375 1.6875 L 0.140625 1.734375 L 0.09375 1.6875 M 23.921875 1.765625 L 23.9375 1.796875 L 23.921875 1.765625 M 0.046875 1.828125 L 0.046875 22.125 L 0.09375 22.125 L 0.09375 3.609375 C 0.09375 3.097656 0.242188 2.296875 0.046875 1.828125 M 23.90625 1.875 L 23.90625 22.125 L 23.953125 22.125 L 23.953125 3.65625 C 23.953125 3.144531 24.101562 2.34375 23.90625 1.875 M 11.1875 2.875 L 11.21875 2.890625 L 11.1875 2.875 M 11.0625 2.90625 L 11.109375 2.953125 Z M 11.0625 2.90625 "/>
<path style=" stroke:none;fill-rule:nonzero;fill:rgb(98.039216%,98.823529%,98.823529%);fill-opacity:1;" d="M 10.921875 4.265625 L 8.71875 4.265625 C 8.539062 4.265625 8.066406 4.191406 8.039062 4.457031 C 8.003906 4.75 8.453125 4.6875 8.625 4.6875 L 10.59375 4.6875 C 10.21875 5.578125 9.53125 6.441406 8.859375 7.125 C 8.671875 7.3125 7.953125 7.785156 7.953125 8.058594 C 7.953125 8.222656 8.15625 8.175781 8.25 8.140625 C 8.515625 8.03125 8.769531 7.847656 9 7.679688 C 9.722656 7.148438 10.59375 6.320312 10.875 5.4375 L 10.921875 5.4375 C 10.980469 5.90625 10.96875 6.371094 10.96875 6.84375 C 10.96875 7.003906 11.007812 7.253906 10.886719 7.378906 C 10.699219 7.570312 10.09375 7.441406 9.84375 7.453125 C 9.722656 7.460938 9.507812 7.480469 9.503906 7.644531 C 9.5 7.820312 9.71875 7.824219 9.84375 7.828125 C 10.085938 7.832031 10.769531 7.707031 10.921875 7.9375 C 11.203125 8.359375 10.761719 9.109375 10.988281 9.550781 C 11.113281 9.792969 11.445312 9.695312 11.511719 9.46875 C 11.648438 8.988281 11.53125 8.324219 11.53125 7.828125 C 11.832031 7.828125 12.28125 7.914062 12.558594 7.800781 C 12.8125 7.699219 12.777344 7.339844 12.515625 7.28125 C 12.265625 7.226562 11.832031 7.453125 11.53125 7.453125 L 11.53125 5.203125 L 11.578125 5.203125 C 11.90625 6.171875 12.507812 7 13.265625 7.679688 C 13.535156 7.921875 14.167969 8.429688 14.34375 7.828125 C 14.457031 7.84375 14.757812 7.863281 14.664062 7.652344 C 14.601562 7.515625 14.371094 7.457031 14.25 7.394531 C 13.953125 7.242188 13.660156 7.046875 13.40625 6.828125 C 12.691406 6.21875 12.230469 5.488281 11.765625 4.6875 C 12.484375 4.6875 13.253906 4.761719 13.96875 4.683594 C 14.21875 4.652344 14.414062 4.367188 14.222656 4.144531 C 13.980469 3.867188 13.738281 4.21875 13.5 4.257812 C 12.875 4.359375 12.164062 4.265625 11.53125 4.265625 C 11.53125 3.921875 11.609375 3.472656 11.511719 3.144531 C 11.453125 2.941406 11.207031 2.84375 11.035156 2.988281 C 10.785156 3.199219 10.921875 3.964844 10.921875 4.265625 Z M 10.921875 4.265625 "/>
<path style=" stroke:none;fill-rule:nonzero;fill:rgb(55.686275%,68.235294%,58.431373%);fill-opacity:1;" d="M 11.34375 2.90625 L 11.390625 2.953125 L 11.34375 2.90625 M 11.4375 2.953125 L 11.484375 3 L 11.4375 2.953125 M 10.9375 3.03125 L 10.953125 3.0625 L 10.9375 3.03125 M 11.5 3.03125 L 11.515625 3.0625 L 11.5 3.03125 M 2.203125 3.046875 L 2.25 3.09375 Z M 2.203125 3.046875 "/>
<path style=" stroke:none;fill-rule:nonzero;fill:rgb(98.039216%,98.823529%,98.823529%);fill-opacity:1;" d="M 2.625 9.28125 L 6.28125 9.28125 C 6.296875 9.539062 6.613281 9.929688 6.816406 9.550781 C 6.984375 9.230469 6.84375 8.519531 6.84375 8.15625 L 6.84375 4.640625 C 6.84375 4.289062 6.996094 3.457031 6.789062 3.164062 C 6.609375 2.917969 6.339844 3.199219 6.140625 3.226562 C 5.613281 3.304688 5.03125 3.234375 4.5 3.234375 C 3.953125 3.234375 3.355469 3.304688 2.8125 3.226562 C 2.601562 3.199219 2.378906 2.960938 2.171875 3.128906 C 1.90625 3.34375 2.0625 4.277344 2.0625 4.59375 L 2.0625 8.15625 C 2.0625 8.515625 1.925781 9.242188 2.109375 9.554688 C 2.335938 9.933594 2.617188 9.546875 2.625 9.28125 Z M 2.625 9.28125 "/>
<path style=" stroke:none;fill-rule:nonzero;fill:rgb(55.686275%,68.235294%,58.431373%);fill-opacity:1;" d="M 2.46875 3.0625 L 2.5 3.078125 L 2.46875 3.0625 M 6.40625 3.0625 L 6.4375 3.078125 L 6.40625 3.0625 M 6.6875 3.0625 L 6.71875 3.078125 L 6.6875 3.0625 M 17.703125 3.0625 L 17.734375 3.078125 L 17.703125 3.0625 M 2.109375 3.09375 L 2.15625 3.140625 L 2.109375 3.09375 M 2.53125 3.09375 L 2.625 3.1875 L 2.625 3.09375 L 2.53125 3.09375 M 17.53125 3.09375 L 17.578125 3.140625 Z M 17.53125 3.09375 "/>
<path style=" stroke:none;fill-rule:nonzero;fill:rgb(98.039216%,98.823529%,98.823529%);fill-opacity:1;" d="M 17.585938 3.128906 C 17.136719 3.300781 16.816406 3.34375 16.3125 3.328125 C 16.171875 3.320312 15.9375 3.257812 15.875 3.433594 C 15.785156 3.671875 16.128906 3.65625 16.265625 3.65625 C 16.636719 3.65625 17.601562 3.828125 17.890625 3.582031 C 18.144531 3.367188 17.867188 3.023438 17.585938 3.128906 Z M 17.585938 3.128906 "/>
<path style=" stroke:none;fill-rule:nonzero;fill:rgb(55.686275%,68.235294%,58.431373%);fill-opacity:1;" d="M 17.859375 3.09375 L 17.90625 3.140625 L 17.859375 3.09375 M 21.140625 3.328125 L 21.609375 3.140625 C 21.402344 3.058594 21.265625 3.164062 21.140625 3.328125 M 2.0625 3.140625 L 2.109375 3.1875 L 2.0625 3.140625 M 6.28125 3.140625 L 5.015625 3.1875 L 2.625 3.1875 L 2.625 3.234375 L 5.4375 3.234375 L 6.28125 3.140625 M 6.796875 3.140625 L 6.84375 3.1875 L 6.796875 3.140625 M 10.875 3.140625 L 10.875 4.265625 L 10.921875 4.265625 L 10.875 3.140625 M 17.90625 3.140625 L 17.953125 3.1875 Z M 17.90625 3.140625 "/>
<path style=" stroke:none;fill-rule:nonzero;fill:rgb(98.039216%,98.823529%,98.823529%);fill-opacity:1;" d="M 19.5 3.703125 C 19.441406 4.445312 19.214844 4.546875 18.515625 4.546875 C 18.53125 4.980469 18.929688 4.875 19.265625 4.875 C 19.207031 5.175781 19.214844 5.6875 19.03125 5.9375 C 18.898438 6.121094 18.042969 5.921875 18.214844 6.3125 C 18.3125 6.53125 19.015625 6.421875 19.21875 6.421875 L 21.140625 6.421875 C 21.425781 6.421875 21.804688 6.488281 22.074219 6.398438 C 22.339844 6.3125 22.34375 5.945312 22.074219 5.859375 C 21.851562 5.785156 21.503906 6.046875 21.234375 6.046875 C 21.234375 5.726562 21.402344 4.578125 21.039062 4.441406 C 20.746094 4.332031 20.277344 4.585938 19.921875 4.5 C 19.976562 4.285156 19.976562 3.832031 20.210938 3.730469 C 20.535156 3.589844 21.6875 3.953125 21.769531 3.464844 C 21.871094 2.90625 21.148438 3.320312 20.953125 3.328125 C 20.410156 3.351562 19.859375 3.328125 19.3125 3.328125 C 19.109375 3.328125 18.804688 3.273438 18.617188 3.355469 C 18.433594 3.4375 18.488281 3.640625 18.660156 3.6875 C 18.910156 3.757812 19.238281 3.703125 19.5 3.703125 Z M 19.5 3.703125 "/>
<path style=" stroke:none;fill-rule:nonzero;fill:rgb(55.686275%,68.235294%,58.431373%);fill-opacity:1;" d="M 21.65625 3.140625 L 21.703125 3.1875 L 21.65625 3.140625 M 6.84375 3.1875 L 6.84375 9.375 L 6.890625 9.375 L 6.890625 5.0625 C 6.890625 4.527344 7.050781 3.679688 6.84375 3.1875 M 11.53125 3.1875 L 11.53125 4.125 L 11.578125 4.125 L 11.53125 3.1875 M 17.4375 3.1875 L 17.484375 3.234375 L 17.4375 3.1875 M 17.953125 3.1875 L 18 3.234375 L 17.953125 3.1875 M 21.703125 3.1875 L 21.75 3.234375 L 21.703125 3.1875 M 2.015625 3.234375 L 2.015625 9.46875 L 2.0625 9.46875 L 2.0625 5.109375 C 2.0625 4.574219 2.222656 3.726562 2.015625 3.234375 M 15.9375 3.28125 L 15.984375 3.328125 L 15.9375 3.28125 M 16.078125 3.28125 L 16.078125 3.328125 L 17.390625 3.328125 L 16.078125 3.28125 M 21.75 3.28125 L 21.796875 3.328125 L 21.75 3.28125 M 18.515625 3.328125 L 18.5625 3.375 L 18.515625 3.328125 M 18 3.375 L 18.046875 3.421875 L 18 3.375 M 18.46875 3.375 L 18.515625 3.421875 L 18.46875 3.375 M 17.953125 3.515625 L 18 3.5625 L 17.953125 3.515625 M 21.75 3.515625 L 21.796875 3.5625 L 21.75 3.515625 M 2.625 8.859375 L 2.671875 8.859375 L 2.671875 3.609375 L 6.140625 3.609375 C 5.894531 3.507812 5.558594 3.5625 5.296875 3.5625 L 3.515625 3.5625 C 3.324219 3.5625 2.804688 3.472656 2.671875 3.636719 C 2.476562 3.882812 2.625 4.707031 2.625 5.015625 L 2.625 8.859375 M 17.90625 3.5625 L 17.953125 3.609375 Z M 17.90625 3.5625 "/>
<path style=" stroke:none;fill-rule:nonzero;fill:rgb(1.176471%,59.607843%,54.117647%);fill-opacity:1;" d="M 2.671875 3.609375 L 2.671875 8.90625 L 5.25 8.90625 C 5.480469 8.90625 6.019531 9.003906 6.207031 8.859375 C 6.402344 8.703125 6.28125 7.964844 6.28125 7.734375 L 6.28125 4.6875 C 6.28125 4.460938 6.390625 3.8125 6.199219 3.65625 C 6.015625 3.511719 5.476562 3.609375 5.25 3.609375 Z M 2.671875 3.609375 "/>
<path style=" stroke:none;fill-rule:nonzero;fill:rgb(55.686275%,68.235294%,58.431373%);fill-opacity:1;" d="M 6.25 3.640625 L 6.265625 3.671875 L 6.25 3.640625 M 17.859375 3.609375 L 17.90625 3.65625 L 17.859375 3.609375 M 18.46875 3.609375 L 18.515625 3.65625 L 18.46875 3.609375 M 21.703125 3.609375 L 21.75 3.65625 L 21.703125 3.609375 M 15.984375 3.65625 L 15.984375 3.703125 L 17.71875 3.703125 C 17.257812 3.511719 16.484375 3.65625 15.984375 3.65625 M 18.515625 3.65625 L 18.5625 3.703125 L 18.515625 3.65625 M 21.609375 3.65625 L 21.65625 3.703125 L 21.609375 3.65625 M 18.5625 3.703125 L 18.5625 3.75 L 19.5 3.75 L 18.5625 3.703125 M 20.109375 3.703125 L 20.109375 3.75 L 21.5625 3.75 L 20.109375 3.703125 M 20.078125 3.78125 L 20.09375 3.8125 L 20.078125 3.78125 M 19.46875 3.875 L 19.484375 3.90625 L 19.46875 3.875 M 17.953125 3.9375 L 18 3.984375 L 17.953125 3.9375 M 20.015625 3.9375 L 20.015625 4.125 L 20.0625 4.125 L 20.015625 3.9375 M 13.875 3.984375 L 13.875 4.03125 L 14.0625 4.03125 L 13.875 3.984375 M 17.8125 3.984375 L 17.859375 4.03125 Z M 17.8125 3.984375 "/>
<path style=" stroke:none;fill-rule:nonzero;fill:rgb(98.039216%,98.823529%,98.823529%);fill-opacity:1;" d="M 15.609375 4.21875 C 15.59375 4.320312 15.5625 4.457031 15.675781 4.519531 C 15.828125 4.597656 16.097656 4.546875 16.265625 4.546875 C 16.765625 4.546875 17.675781 4.722656 18.128906 4.511719 C 18.429688 4.371094 18.199219 3.945312 17.90625 4.007812 C 17.691406 4.054688 17.585938 4.214844 17.34375 4.21875 C 17.109375 4.222656 16.875 4.21875 16.640625 4.21875 Z M 15.609375 4.21875 "/>
<path style=" stroke:none;fill-rule:nonzero;fill:rgb(55.686275%,68.235294%,58.431373%);fill-opacity:1;" d="M 18.09375 3.984375 L 18.140625 4.03125 L 18.09375 3.984375 M 13.78125 4.03125 L 13.828125 4.078125 L 13.78125 4.03125 M 14.109375 4.03125 L 14.15625 4.078125 L 14.109375 4.03125 M 17.71875 4.03125 L 17.765625 4.078125 L 17.71875 4.03125 M 18.1875 4.03125 L 18.234375 4.078125 L 18.1875 4.03125 M 19.40625 4.03125 L 19.40625 4.171875 L 19.453125 4.171875 L 19.40625 4.03125 M 13.734375 4.078125 L 13.78125 4.125 L 13.734375 4.078125 M 14.203125 4.078125 L 14.25 4.125 L 14.203125 4.078125 M 18.25 4.109375 L 18.265625 4.140625 L 18.25 4.109375 M 13.6875 4.125 L 13.734375 4.171875 L 13.6875 4.125 M 14.25 4.125 L 14.296875 4.171875 L 14.25 4.125 M 17.671875 4.125 L 17.71875 4.171875 L 17.671875 4.125 M 15.703125 4.171875 L 15.703125 4.21875 L 17.671875 4.21875 C 17.15625 4.003906 16.261719 4.171875 15.703125 4.171875 M 19.96875 4.171875 L 19.96875 4.3125 L 20.015625 4.3125 L 19.96875 4.171875 M 11.53125 4.21875 L 11.578125 4.265625 L 11.53125 4.21875 M 13.640625 4.21875 L 13.6875 4.265625 L 13.640625 4.21875 M 8.09375 4.28125 L 8.125 4.296875 L 8.09375 4.28125 M 14.296875 4.265625 L 14.296875 4.453125 L 14.34375 4.453125 L 14.296875 4.265625 M 15.578125 4.296875 L 15.59375 4.328125 L 15.578125 4.296875 M 19.375 4.296875 L 19.390625 4.328125 L 19.375 4.296875 M 8.015625 4.3125 L 8.0625 4.359375 L 8.015625 4.3125 M 7.96875 4.40625 L 7.96875 4.59375 L 8.015625 4.59375 L 7.96875 4.40625 M 18.234375 4.40625 L 18.28125 4.453125 L 18.234375 4.40625 M 19.9375 4.4375 L 19.953125 4.46875 L 19.9375 4.4375 M 20.796875 4.421875 L 20.828125 4.4375 L 20.796875 4.421875 M 21.078125 4.421875 L 21.109375 4.4375 L 21.078125 4.421875 M 15.5625 4.453125 L 15.609375 4.5 L 15.5625 4.453125 M 20.71875 4.453125 L 20.765625 4.5 L 20.71875 4.453125 M 21.140625 4.453125 L 21.1875 4.5 L 21.140625 4.453125 M 14.25 4.5 L 14.296875 4.546875 L 14.25 4.5 M 18.140625 4.5 L 18.1875 4.546875 L 18.140625 4.5 M 18.5625 4.5 L 18.5625 4.546875 L 19.265625 4.546875 L 18.5625 4.5 M 19.96875 4.5 L 19.96875 4.546875 L 20.625 4.546875 L 19.96875 4.5 M 21.1875 4.5 L 21.1875 4.640625 L 21.234375 4.640625 L 21.1875 4.5 M 15.65625 4.546875 L 15.65625 4.59375 L 18.09375 4.59375 L 17.296875 4.546875 L 15.65625 4.546875 M 8.015625 4.59375 L 8.0625 4.640625 L 8.015625 4.59375 M 14.203125 4.59375 L 14.25 4.640625 L 14.203125 4.59375 M 18.46875 4.59375 L 18.46875 4.828125 L 18.515625 4.828125 L 18.46875 4.59375 M 8.0625 4.640625 L 8.109375 4.6875 L 8.0625 4.640625 M 14.109375 4.640625 L 14.15625 4.6875 L 14.109375 4.640625 M 10.5625 4.71875 L 10.578125 4.75 L 10.5625 4.71875 M 11.765625 4.6875 L 11.8125 4.828125 L 11.859375 4.828125 L 11.859375 4.6875 L 11.765625 4.6875 M 21.203125 4.765625 L 21.21875 4.796875 L 21.203125 4.765625 M 10.5 4.828125 L 10.546875 4.875 L 10.5 4.828125 M 18.515625 4.828125 L 18.5625 4.875 L 18.515625 4.828125 M 11.859375 4.875 L 11.90625 4.921875 L 11.859375 4.875 M 19.21875 4.875 L 19.21875 5.015625 L 19.265625 5.015625 L 19.21875 4.875 M 19.84375 4.90625 L 19.859375 4.9375 Z M 19.84375 4.90625 "/>
<path style=" stroke:none;fill-rule:nonzero;fill:rgb(1.176471%,59.607843%,54.117647%);fill-opacity:1;" d="M 19.640625 6 L 20.625 6 L 20.625 4.875 L 19.910156 4.921875 Z M 19.640625 6 "/>
<path style=" stroke:none;fill-rule:nonzero;fill:rgb(55.686275%,68.235294%,58.431373%);fill-opacity:1;" d="M 20.625 4.875 L 20.625 6 L 20.671875 6 L 20.625 4.875 M 10.453125 4.921875 L 10.5 4.96875 L 10.453125 4.921875 M 17.53125 4.921875 L 17.53125 4.96875 L 17.71875 4.96875 L 17.53125 4.921875 M 10.421875 5 L 10.4375 5.03125 L 10.421875 5 M 11.90625 4.96875 L 11.953125 5.015625 L 11.90625 4.96875 M 17.4375 4.96875 L 17.390625 5.0625 Z M 17.4375 4.96875 "/>
<path style=" stroke:none;fill-rule:nonzero;fill:rgb(98.039216%,98.823529%,98.823529%);fill-opacity:1;" d="M 17.492188 5.015625 C 17.089844 5.191406 16.707031 5.15625 16.265625 5.15625 C 16.128906 5.15625 15.882812 5.117188 15.804688 5.265625 C 15.691406 5.472656 15.992188 5.527344 16.125 5.53125 C 16.507812 5.542969 17.496094 5.699219 17.796875 5.449219 C 18.066406 5.230469 17.785156 4.886719 17.492188 5.015625 Z M 17.492188 5.015625 "/>
<path style=" stroke:none;fill-rule:nonzero;fill:rgb(55.686275%,68.235294%,58.431373%);fill-opacity:1;" d="M 17.765625 4.96875 L 17.8125 5.015625 L 17.765625 4.96875 M 11.96875 5.046875 L 11.984375 5.078125 L 11.96875 5.046875 M 19.78125 5.015625 L 19.78125 5.203125 L 19.828125 5.203125 L 19.78125 5.015625 M 10.359375 5.0625 L 10.40625 5.109375 L 10.359375 5.0625 M 16.0625 5.125 L 16.09375 5.140625 L 16.0625 5.125 M 17.25 5.109375 L 17.25 5.15625 L 17.390625 5.15625 L 17.25 5.109375 M 19.171875 5.109375 L 19.171875 5.296875 L 19.21875 5.296875 L 19.171875 5.109375 M 10.3125 5.15625 L 10.359375 5.203125 L 10.3125 5.15625 M 12 5.15625 L 12.046875 5.203125 L 12 5.15625 M 15.796875 5.15625 L 15.84375 5.203125 L 15.796875 5.15625 M 11.53125 5.203125 L 11.53125 5.390625 L 11.578125 5.390625 L 11.53125 5.203125 M 12.0625 5.234375 L 12.078125 5.265625 L 12.0625 5.234375 M 15.75 5.203125 L 15.796875 5.25 L 15.75 5.203125 M 17.921875 5.234375 L 17.9375 5.265625 L 17.921875 5.234375 M 10.265625 5.25 L 10.3125 5.296875 L 10.265625 5.25 M 19.734375 5.25 L 19.734375 5.390625 L 19.78125 5.390625 L 19.734375 5.25 M 10.21875 5.296875 L 10.265625 5.34375 L 10.21875 5.296875 M 12.09375 5.296875 L 12.140625 5.34375 L 12.09375 5.296875 M 19.125 5.296875 L 19.125 5.53125 L 19.171875 5.53125 L 19.125 5.296875 M 10.171875 5.390625 L 10.21875 5.4375 L 10.171875 5.390625 M 11.640625 5.421875 L 11.65625 5.453125 L 11.640625 5.421875 M 12.140625 5.390625 L 12.1875 5.4375 L 12.140625 5.390625 M 15.765625 5.421875 L 15.78125 5.453125 L 15.765625 5.421875 M 17.859375 5.390625 L 17.90625 5.4375 L 17.859375 5.390625 M 4.21875 5.4375 L 4.265625 5.484375 Z M 4.21875 5.4375 "/>
<path style=" stroke:none;fill-rule:nonzero;fill:rgb(80.392157%,36.470588%,29.411765%);fill-opacity:1;" d="M 4.265625 5.4375 L 4.3125 5.484375 Z M 4.265625 5.4375 "/>
<path style=" stroke:none;fill-rule:nonzero;fill:rgb(98.823529%,1.568627%,1.568627%);fill-opacity:1;" d="M 4.3125 5.460938 C 3.285156 5.660156 3.605469 7.238281 4.640625 7.011719 C 5.628906 6.796875 5.292969 5.269531 4.3125 5.460938 Z M 4.3125 5.460938 "/>
<path style=" stroke:none;fill-rule:nonzero;fill:rgb(80.392157%,36.470588%,29.411765%);fill-opacity:1;" d="M 4.59375 5.4375 L 4.640625 5.484375 Z M 4.59375 5.4375 "/>
<path style=" stroke:none;fill-rule:nonzero;fill:rgb(55.686275%,68.235294%,58.431373%);fill-opacity:1;" d="M 4.640625 5.4375 L 4.6875 5.484375 L 4.640625 5.4375 M 10.140625 5.46875 L 10.15625 5.5 L 10.140625 5.46875 M 10.875 5.4375 L 10.828125 5.625 L 10.875 5.625 L 10.875 5.4375 M 12.1875 5.4375 L 12.234375 5.484375 L 12.1875 5.4375 M 17.8125 5.4375 L 17.859375 5.484375 L 17.8125 5.4375 M 4.078125 5.484375 L 4.125 5.53125 Z M 4.078125 5.484375 "/>
<path style=" stroke:none;fill-rule:nonzero;fill:rgb(80.392157%,36.470588%,29.411765%);fill-opacity:1;" d="M 4.734375 5.484375 L 4.78125 5.53125 Z M 4.734375 5.484375 "/>
<path style=" stroke:none;fill-rule:nonzero;fill:rgb(55.686275%,68.235294%,58.431373%);fill-opacity:1;" d="M 4.78125 5.484375 L 4.828125 5.53125 L 4.78125 5.484375 M 11.6875 5.515625 L 11.703125 5.546875 L 11.6875 5.515625 M 15.828125 5.5 L 15.859375 5.515625 L 15.828125 5.5 M 17.75 5.5 L 17.78125 5.515625 L 17.75 5.5 M 19.6875 5.484375 L 19.6875 5.625 L 19.734375 5.625 Z M 19.6875 5.484375 "/>
<path style=" stroke:none;fill-rule:nonzero;fill:rgb(80.392157%,36.470588%,29.411765%);fill-opacity:1;" d="M 4.03125 5.53125 L 4.078125 5.578125 Z M 4.03125 5.53125 "/>
<path style=" stroke:none;fill-rule:nonzero;fill:rgb(55.686275%,68.235294%,58.431373%);fill-opacity:1;" d="M 4.875 5.53125 L 4.921875 5.578125 L 4.875 5.53125 M 12.234375 5.53125 L 12.28125 5.578125 L 12.234375 5.53125 M 3.9375 5.578125 L 3.984375 5.625 Z M 3.9375 5.578125 "/>
<path style=" stroke:none;fill-rule:nonzero;fill:rgb(80.392157%,36.470588%,29.411765%);fill-opacity:1;" d="M 4.921875 5.578125 L 4.96875 5.625 Z M 4.921875 5.578125 "/>
<path style=" stroke:none;fill-rule:nonzero;fill:rgb(55.686275%,68.235294%,58.431373%);fill-opacity:1;" d="M 10.046875 5.609375 L 10.0625 5.640625 L 10.046875 5.609375 M 10.921875 5.578125 L 10.921875 7.359375 L 10.96875 7.359375 C 10.96875 6.847656 11.121094 6.046875 10.921875 5.578125 M 11.734375 5.609375 L 11.75 5.640625 Z M 11.734375 5.609375 "/>
<path style=" stroke:none;fill-rule:nonzero;fill:rgb(80.392157%,36.470588%,29.411765%);fill-opacity:1;" d="M 3.890625 5.625 L 3.9375 5.671875 Z M 3.890625 5.625 "/>
<path style=" stroke:none;fill-rule:nonzero;fill:rgb(55.686275%,68.235294%,58.431373%);fill-opacity:1;" d="M 10.78125 5.625 L 10.828125 5.671875 L 10.78125 5.625 M 12.34375 5.65625 L 12.359375 5.6875 L 12.34375 5.65625 M 19.078125 5.625 L 19.078125 5.765625 L 19.125 5.765625 Z M 19.078125 5.625 "/>
<path style=" stroke:none;fill-rule:nonzero;fill:rgb(80.392157%,36.470588%,29.411765%);fill-opacity:1;" d="M 3.84375 5.671875 L 3.890625 5.71875 L 3.84375 5.671875 M 5.015625 5.671875 L 5.0625 5.71875 Z M 5.015625 5.671875 "/>
<path style=" stroke:none;fill-rule:nonzero;fill:rgb(55.686275%,68.235294%,58.431373%);fill-opacity:1;" d="M 9.984375 5.671875 L 10.03125 5.71875 L 9.984375 5.671875 M 10.75 5.703125 L 10.765625 5.734375 L 10.75 5.703125 M 3.796875 5.71875 L 3.84375 5.765625 Z M 3.796875 5.71875 "/>
<path style=" stroke:none;fill-rule:nonzero;fill:rgb(80.392157%,36.470588%,29.411765%);fill-opacity:1;" d="M 5.0625 5.71875 L 5.109375 5.765625 Z M 5.0625 5.71875 "/>
<path style=" stroke:none;fill-rule:nonzero;fill:rgb(55.686275%,68.235294%,58.431373%);fill-opacity:1;" d="M 9.953125 5.75 L 9.96875 5.78125 L 9.953125 5.75 M 11.765625 5.71875 L 11.8125 5.765625 L 11.765625 5.71875 M 12.375 5.71875 L 12.421875 5.765625 L 12.375 5.71875 M 19.640625 5.71875 L 19.640625 5.859375 L 19.6875 5.859375 L 19.640625 5.71875 M 3.75 5.765625 L 3.796875 5.8125 Z M 3.75 5.765625 "/>
<path style=" stroke:none;fill-rule:nonzero;fill:rgb(80.392157%,36.470588%,29.411765%);fill-opacity:1;" d="M 5.109375 5.765625 L 5.15625 5.8125 Z M 5.109375 5.765625 "/>
<path style=" stroke:none;fill-rule:nonzero;fill:rgb(55.686275%,68.235294%,58.431373%);fill-opacity:1;" d="M 10.6875 5.765625 L 10.734375 5.8125 L 10.6875 5.765625 M 12.421875 5.765625 L 12.46875 5.8125 Z M 12.421875 5.765625 "/>
<path style=" stroke:none;fill-rule:nonzero;fill:rgb(80.392157%,36.470588%,29.411765%);fill-opacity:1;" d="M 3.75 5.8125 L 3.796875 5.859375 Z M 3.75 5.8125 "/>
<path style=" stroke:none;fill-rule:nonzero;fill:rgb(55.686275%,68.235294%,58.431373%);fill-opacity:1;" d="M 9.890625 5.8125 L 9.9375 5.859375 L 9.890625 5.8125 M 11.8125 5.8125 L 11.859375 5.859375 L 11.8125 5.8125 M 17.53125 5.8125 L 17.53125 5.859375 L 17.765625 5.859375 L 17.53125 5.8125 M 21.875 5.828125 L 21.90625 5.84375 L 21.875 5.828125 M 22.03125 5.8125 L 22.03125 5.859375 L 22.171875 5.859375 L 22.03125 5.8125 M 3.703125 5.859375 L 3.75 5.90625 Z M 3.703125 5.859375 "/>
<path style=" stroke:none;fill-rule:nonzero;fill:rgb(80.392157%,36.470588%,29.411765%);fill-opacity:1;" d="M 5.15625 5.859375 L 5.203125 5.90625 Z M 5.15625 5.859375 "/>
<path style=" stroke:none;fill-rule:nonzero;fill:rgb(55.686275%,68.235294%,58.431373%);fill-opacity:1;" d="M 9.859375 5.890625 L 9.875 5.921875 L 9.859375 5.890625 M 10.640625 5.859375 L 10.6875 5.90625 L 10.640625 5.859375 M 12.46875 5.859375 L 12.515625 5.90625 L 12.46875 5.859375 M 17.4375 5.859375 C 17.046875 6.140625 16.3125 6 15.84375 6 L 15.84375 6.046875 C 16.25 6.046875 16.65625 6.050781 17.0625 6.046875 C 17.226562 6.046875 17.410156 6.050781 17.4375 5.859375 Z M 17.4375 5.859375 "/>
<path style=" stroke:none;fill-rule:nonzero;fill:rgb(98.039216%,98.823529%,98.823529%);fill-opacity:1;" d="M 17.492188 5.90625 C 17.105469 6.078125 16.742188 6.046875 16.3125 6.046875 C 16.175781 6.046875 15.894531 5.996094 15.800781 6.121094 C 15.660156 6.304688 15.886719 6.414062 16.03125 6.421875 C 16.453125 6.441406 16.875 6.421875 17.296875 6.421875 C 17.453125 6.421875 17.667969 6.457031 17.796875 6.347656 C 18.0625 6.121094 17.792969 5.769531 17.492188 5.90625 Z M 17.492188 5.90625 "/>
<path style=" stroke:none;fill-rule:nonzero;fill:rgb(55.686275%,68.235294%,58.431373%);fill-opacity:1;" d="M 17.8125 5.859375 L 17.859375 5.90625 L 17.8125 5.859375 M 19.03125 5.859375 L 19.03125 6 L 19.078125 6 L 19.03125 5.859375 M 21.75 5.859375 L 21.796875 5.90625 L 21.75 5.859375 M 22.171875 5.859375 L 22.21875 5.90625 Z M 22.171875 5.859375 "/>
<path style=" stroke:none;fill-rule:nonzero;fill:rgb(80.392157%,36.470588%,29.411765%);fill-opacity:1;" d="M 3.703125 5.90625 L 3.75 5.953125 Z M 3.703125 5.90625 "/>
<path style=" stroke:none;fill-rule:nonzero;fill:rgb(55.686275%,68.235294%,58.431373%);fill-opacity:1;" d="M 10.609375 5.9375 L 10.625 5.96875 L 10.609375 5.9375 M 11.859375 5.90625 L 11.90625 5.953125 L 11.859375 5.90625 M 12.515625 5.90625 L 12.5625 5.953125 L 12.515625 5.90625 M 17.859375 5.90625 L 17.90625 5.953125 L 17.859375 5.90625 M 22.21875 5.90625 L 22.265625 5.953125 Z M 22.21875 5.90625 "/>
<path style=" stroke:none;fill-rule:nonzero;fill:rgb(80.392157%,36.470588%,29.411765%);fill-opacity:1;" d="M 5.203125 5.953125 L 5.25 6 Z M 5.203125 5.953125 "/>
<path style=" stroke:none;fill-rule:nonzero;fill:rgb(55.686275%,68.235294%,58.431373%);fill-opacity:1;" d="M 9.796875 5.953125 L 9.84375 6 L 9.796875 5.953125 M 12.5625 5.953125 L 12.609375 6 L 12.5625 5.953125 M 19.59375 5.953125 C 19.773438 6.15625 20.363281 6.046875 20.625 6.046875 L 20.625 6 L 19.59375 5.953125 M 22.265625 5.953125 L 22.265625 6.09375 L 22.3125 6.09375 Z M 22.265625 5.953125 "/>
<path style=" stroke:none;fill-rule:nonzero;fill:rgb(80.392157%,36.470588%,29.411765%);fill-opacity:1;" d="M 3.671875 6.03125 L 3.6875 6.0625 Z M 3.671875 6.03125 "/>
<path style=" stroke:none;fill-rule:nonzero;fill:rgb(55.686275%,68.235294%,58.431373%);fill-opacity:1;" d="M 9.75 6 L 9.796875 6.046875 L 9.75 6 M 10.546875 6 L 10.59375 6.046875 L 10.546875 6 M 11.90625 6 L 11.953125 6.046875 L 11.90625 6 M 12.609375 6 L 12.65625 6.046875 L 12.609375 6 M 17.90625 6 L 17.90625 6.28125 L 17.953125 6.28125 L 17.90625 6 M 18.28125 6 L 18.28125 6.046875 L 19.03125 6.046875 L 18.28125 6 M 21.234375 6 L 21.234375 6.046875 L 21.703125 6.046875 L 21.234375 6 M 15.75 6.046875 L 15.796875 6.09375 L 15.75 6.046875 M 18.1875 6.046875 L 18.234375 6.09375 L 18.1875 6.046875 M 9.703125 6.09375 L 9.75 6.140625 L 9.703125 6.09375 M 12.65625 6.09375 L 12.703125 6.140625 L 12.65625 6.09375 M 18.140625 6.09375 L 18.140625 6.375 L 18.1875 6.375 L 18.140625 6.09375 M 5.25 6.140625 L 5.25 6.375 L 5.296875 6.375 L 5.25 6.140625 M 9.65625 6.140625 L 9.703125 6.1875 L 9.65625 6.140625 M 10.453125 6.140625 L 10.5 6.1875 L 10.453125 6.140625 M 12.015625 6.171875 L 12.03125 6.203125 L 12.015625 6.171875 M 12.703125 6.140625 L 12.75 6.1875 L 12.703125 6.140625 M 15.703125 6.140625 L 15.703125 6.28125 L 15.75 6.28125 L 15.703125 6.140625 M 9.609375 6.1875 L 9.65625 6.234375 L 9.609375 6.1875 M 12.75 6.1875 L 12.796875 6.234375 L 12.75 6.1875 M 22.28125 6.21875 L 22.296875 6.25 L 22.28125 6.21875 M 9.5625 6.234375 L 9.609375 6.28125 L 9.5625 6.234375 M 10.375 6.265625 L 10.390625 6.296875 L 10.375 6.265625 M 12.046875 6.234375 L 12.09375 6.28125 L 12.046875 6.234375 M 12.796875 6.234375 L 12.84375 6.28125 L 12.796875 6.234375 M 12.84375 6.28125 L 12.890625 6.328125 L 12.84375 6.28125 M 17.859375 6.28125 L 17.8125 6.375 L 17.90625 6.375 L 17.859375 6.28125 M 9.515625 6.328125 L 9.5625 6.375 L 9.515625 6.328125 M 10.3125 6.328125 L 10.359375 6.375 L 10.3125 6.328125 M 12.09375 6.328125 L 12.140625 6.375 L 12.09375 6.328125 M 15.765625 6.359375 L 15.78125 6.390625 L 15.765625 6.359375 M 22.171875 6.328125 L 22.21875 6.375 L 22.171875 6.328125 M 9.46875 6.375 L 9.515625 6.421875 L 9.46875 6.375 M 10.265625 6.375 L 10.3125 6.421875 L 10.265625 6.375 M 12.15625 6.40625 L 12.171875 6.4375 L 12.15625 6.40625 M 12.9375 6.375 L 12.984375 6.421875 L 12.9375 6.375 M 18.1875 6.375 L 18.234375 6.421875 Z M 18.1875 6.375 "/>
<path style=" stroke:none;fill-rule:nonzero;fill:rgb(80.392157%,36.470588%,29.411765%);fill-opacity:1;" d="M 3.65625 6.421875 L 3.703125 6.46875 Z M 3.65625 6.421875 "/>
<path style=" stroke:none;fill-rule:nonzero;fill:rgb(55.686275%,68.235294%,58.431373%);fill-opacity:1;" d="M 9.421875 6.421875 L 9.46875 6.46875 L 9.421875 6.421875 M 15.890625 6.421875 L 15.890625 6.46875 L 16.03125 6.46875 L 15.890625 6.421875 M 16.078125 6.421875 L 16.078125 6.46875 L 17.71875 6.46875 L 16.078125 6.421875 M 18.328125 6.421875 L 18.328125 6.46875 L 22.125 6.46875 L 20.953125 6.421875 L 18.328125 6.421875 M 3.65625 6.46875 L 3.703125 6.515625 Z M 3.65625 6.46875 "/>
<path style=" stroke:none;fill-rule:nonzero;fill:rgb(80.392157%,36.470588%,29.411765%);fill-opacity:1;" d="M 5.203125 6.46875 L 5.25 6.515625 Z M 5.203125 6.46875 "/>
<path style=" stroke:none;fill-rule:nonzero;fill:rgb(55.686275%,68.235294%,58.431373%);fill-opacity:1;" d="M 10.21875 6.46875 L 10.265625 6.515625 L 10.21875 6.46875 M 12.1875 6.46875 L 12.234375 6.515625 L 12.1875 6.46875 M 12.984375 6.46875 L 13.03125 6.515625 L 12.984375 6.46875 M 5.203125 6.515625 L 5.25 6.5625 L 5.203125 6.515625 M 10.171875 6.515625 L 10.21875 6.5625 L 10.171875 6.515625 M 12.234375 6.515625 L 12.28125 6.5625 L 12.234375 6.515625 M 13.078125 6.515625 L 13.125 6.5625 Z M 13.078125 6.515625 "/>
<path style=" stroke:none;fill-rule:nonzero;fill:rgb(80.392157%,36.470588%,29.411765%);fill-opacity:1;" d="M 3.703125 6.5625 L 3.75 6.609375 Z M 3.703125 6.5625 "/>
<path style=" stroke:none;fill-rule:nonzero;fill:rgb(55.686275%,68.235294%,58.431373%);fill-opacity:1;" d="M 9.328125 6.5625 L 9.375 6.609375 L 9.328125 6.5625 M 10.125 6.5625 L 10.171875 6.609375 L 10.125 6.5625 M 5.15625 6.609375 L 5.203125 6.65625 L 5.15625 6.609375 M 9.28125 6.609375 L 9.328125 6.65625 L 9.28125 6.609375 M 10.078125 6.609375 L 10.125 6.65625 L 10.078125 6.609375 M 12.28125 6.609375 L 12.328125 6.65625 L 12.28125 6.609375 M 13.171875 6.609375 L 13.21875 6.65625 L 13.171875 6.609375 M 3.75 6.65625 L 3.796875 6.703125 Z M 3.75 6.65625 "/>
<path style=" stroke:none;fill-rule:nonzero;fill:rgb(80.392157%,36.470588%,29.411765%);fill-opacity:1;" d="M 5.109375 6.65625 L 5.15625 6.703125 Z M 5.109375 6.65625 "/>
<path style=" stroke:none;fill-rule:nonzero;fill:rgb(55.686275%,68.235294%,58.431373%);fill-opacity:1;" d="M 9.234375 6.65625 L 9.28125 6.703125 L 9.234375 6.65625 M 12.328125 6.65625 L 12.375 6.703125 L 12.328125 6.65625 M 13.21875 6.65625 L 13.265625 6.703125 Z M 13.21875 6.65625 "/>
<path style=" stroke:none;fill-rule:nonzero;fill:rgb(80.392157%,36.470588%,29.411765%);fill-opacity:1;" d="M 3.796875 6.703125 L 3.84375 6.75 Z M 3.796875 6.703125 "/>
<path style=" stroke:none;fill-rule:nonzero;fill:rgb(55.686275%,68.235294%,58.431373%);fill-opacity:1;" d="M 5.109375 6.703125 L 5.15625 6.75 L 5.109375 6.703125 M 9.1875 6.703125 L 9.234375 6.75 L 9.1875 6.703125 M 13.265625 6.703125 L 13.3125 6.75 L 13.265625 6.703125 M 5.0625 6.75 L 5.109375 6.796875 L 5.0625 6.75 M 9.140625 6.75 L 9.1875 6.796875 L 9.140625 6.75 M 9.984375 6.75 L 10.03125 6.796875 L 9.984375 6.75 M 12.375 6.75 L 12.421875 6.796875 L 12.375 6.75 M 13.3125 6.75 L 13.359375 6.796875 Z M 13.3125 6.75 "/>
<path style=" stroke:none;fill-rule:nonzero;fill:rgb(80.392157%,36.470588%,29.411765%);fill-opacity:1;" d="M 5.015625 6.796875 L 5.0625 6.84375 Z M 5.015625 6.796875 "/>
<path style=" stroke:none;fill-rule:nonzero;fill:rgb(55.686275%,68.235294%,58.431373%);fill-opacity:1;" d="M 9.9375 6.796875 L 9.984375 6.84375 L 9.9375 6.796875 M 12.421875 6.796875 L 12.46875 6.84375 L 12.421875 6.796875 M 13.359375 6.796875 L 13.40625 6.84375 L 13.359375 6.796875 M 4.96875 6.84375 L 5.015625 6.890625 L 4.96875 6.84375 M 9.09375 6.84375 L 9.140625 6.890625 L 9.09375 6.84375 M 9.890625 6.84375 L 9.9375 6.890625 L 9.890625 6.84375 M 12.46875 6.84375 L 12.515625 6.890625 L 12.46875 6.84375 M 13.4375 6.859375 L 13.46875 6.875 L 13.4375 6.859375 M 19.03125 6.84375 L 19.03125 6.890625 L 19.171875 6.890625 L 19.03125 6.84375 M 21.140625 6.84375 L 21.140625 6.890625 L 21.328125 6.890625 Z M 21.140625 6.84375 "/>
<path style=" stroke:none;fill-rule:nonzero;fill:rgb(80.392157%,36.470588%,29.411765%);fill-opacity:1;" d="M 3.984375 6.890625 L 4.03125 6.9375 L 3.984375 6.890625 M 4.875 6.890625 L 4.921875 6.9375 Z M 4.875 6.890625 "/>
<path style=" stroke:none;fill-rule:nonzero;fill:rgb(55.686275%,68.235294%,58.431373%);fill-opacity:1;" d="M 9.046875 6.890625 L 9.09375 6.9375 L 9.046875 6.890625 M 9.84375 6.890625 L 9.890625 6.9375 L 9.84375 6.890625 M 13.5 6.890625 L 13.546875 6.9375 L 13.5 6.890625 M 18.890625 6.890625 L 18.796875 7.03125 Z M 18.890625 6.890625 "/>
<path style=" stroke:none;fill-rule:nonzero;fill:rgb(98.039216%,98.823529%,98.823529%);fill-opacity:1;" d="M 19.359375 9.328125 L 20.953125 9.328125 C 21.023438 9.5625 21.351562 9.707031 21.480469 9.414062 C 21.679688 8.96875 21.515625 8.128906 21.515625 7.640625 C 21.515625 7.460938 21.5625 7.199219 21.46875 7.039062 C 21.320312 6.789062 20.617188 7.03125 20.34375 7.03125 C 20.058594 7.03125 19.734375 7.074219 19.453125 7.015625 C 19.285156 6.980469 19.117188 6.839844 18.945312 6.9375 C 18.753906 7.046875 18.796875 7.316406 18.796875 7.5 L 18.796875 8.953125 C 18.796875 9.132812 18.753906 9.394531 18.878906 9.542969 C 19.082031 9.78125 19.316406 9.546875 19.359375 9.328125 Z M 19.359375 9.328125 "/>
<path style=" stroke:none;fill-rule:nonzero;fill:rgb(55.686275%,68.235294%,58.431373%);fill-opacity:1;" d="M 19.21875 6.890625 L 19.265625 6.9375 L 19.21875 6.890625 M 21 6.890625 L 21 6.984375 L 21.09375 6.890625 L 21 6.890625 M 21.375 6.890625 L 21.421875 6.9375 Z M 21.375 6.890625 "/>
<path style=" stroke:none;fill-rule:nonzero;fill:rgb(80.392157%,36.470588%,29.411765%);fill-opacity:1;" d="M 4.8125 6.953125 L 4.84375 6.96875 Z M 4.8125 6.953125 "/>
<path style=" stroke:none;fill-rule:nonzero;fill:rgb(55.686275%,68.235294%,58.431373%);fill-opacity:1;" d="M 9 6.9375 L 9.046875 6.984375 L 9 6.9375 M 9.796875 6.9375 L 9.84375 6.984375 L 9.796875 6.9375 M 13.546875 6.9375 L 13.59375 6.984375 L 13.546875 6.9375 M 16.078125 6.9375 L 16.125 6.984375 L 16.078125 6.9375 M 17.5625 6.953125 L 17.59375 6.96875 L 17.5625 6.953125 M 19.265625 6.9375 L 19.3125 6.984375 L 19.265625 6.9375 M 21.421875 6.9375 L 21.46875 6.984375 L 21.421875 6.9375 M 4.125 6.984375 L 4.171875 7.03125 Z M 4.125 6.984375 "/>
<path style=" stroke:none;fill-rule:nonzero;fill:rgb(80.392157%,36.470588%,29.411765%);fill-opacity:1;" d="M 4.171875 6.984375 L 4.21875 7.03125 L 4.171875 6.984375 M 4.6875 6.984375 L 4.734375 7.03125 Z M 4.6875 6.984375 "/>
<path style=" stroke:none;fill-rule:nonzero;fill:rgb(55.686275%,68.235294%,58.431373%);fill-opacity:1;" d="M 4.734375 6.984375 L 4.78125 7.03125 L 4.734375 6.984375 M 8.953125 6.984375 L 9 7.03125 L 8.953125 6.984375 M 9.75 6.984375 L 9.796875 7.03125 L 9.75 6.984375 M 12.5625 6.984375 L 12.609375 7.03125 L 12.5625 6.984375 M 13.59375 6.984375 L 13.640625 7.03125 L 13.59375 6.984375 M 15.9375 6.984375 L 15.984375 7.03125 Z M 15.9375 6.984375 "/>
<path style=" stroke:none;fill-rule:nonzero;fill:rgb(98.039216%,98.823529%,98.823529%);fill-opacity:1;" d="M 16.40625 9.234375 L 17.34375 9.234375 C 17.390625 9.453125 17.703125 9.660156 17.832031 9.367188 C 18.019531 8.9375 17.859375 8.113281 17.859375 7.640625 C 17.859375 7.480469 17.902344 7.230469 17.8125 7.09375 C 17.675781 6.890625 17.101562 7.125 16.875 7.125 C 16.640625 7.125 16.09375 6.898438 15.925781 7.066406 C 15.792969 7.195312 15.84375 7.472656 15.84375 7.640625 L 15.84375 9.09375 C 15.84375 9.265625 15.8125 9.503906 15.957031 9.628906 C 16.253906 9.882812 16.402344 9.453125 16.40625 9.234375 Z M 16.40625 9.234375 "/>
<path style=" stroke:none;fill-rule:nonzero;fill:rgb(55.686275%,68.235294%,58.431373%);fill-opacity:1;" d="M 16.25 7 L 16.28125 7.015625 L 16.25 7 M 17.4375 6.984375 L 17.484375 7.03125 L 17.4375 6.984375 M 17.765625 6.984375 L 17.8125 7.03125 L 17.765625 6.984375 M 19.3125 6.984375 L 19.3125 7.03125 L 19.453125 7.03125 L 19.3125 6.984375 M 19.5 6.984375 L 19.5 7.03125 L 21 7.03125 L 19.5 6.984375 M 21.46875 6.984375 L 21.515625 7.03125 L 21.46875 6.984375 M 4.3125 7.03125 L 4.359375 7.078125 Z M 4.3125 7.03125 "/>
<path style=" stroke:none;fill-rule:nonzero;fill:rgb(80.392157%,36.470588%,29.411765%);fill-opacity:1;" d="M 4.359375 7.03125 L 4.359375 7.078125 L 4.59375 7.078125 Z M 4.359375 7.03125 "/>
<path style=" stroke:none;fill-rule:nonzero;fill:rgb(55.686275%,68.235294%,58.431373%);fill-opacity:1;" d="M 4.59375 7.03125 L 4.640625 7.078125 L 4.59375 7.03125 M 8.90625 7.03125 L 8.953125 7.078125 L 8.90625 7.03125 M 9.703125 7.03125 L 9.65625 7.125 L 9.75 7.125 L 9.703125 7.03125 M 12.609375 7.03125 L 12.65625 7.078125 L 12.609375 7.03125 M 13.6875 7.03125 L 13.734375 7.078125 L 13.6875 7.03125 M 16.3125 7.03125 L 16.359375 7.078125 L 16.3125 7.03125 M 17.390625 7.03125 L 17.4375 7.078125 L 17.390625 7.03125 M 17.8125 7.03125 L 17.859375 7.078125 L 17.8125 7.03125 M 8.859375 7.078125 L 8.90625 7.125 L 8.859375 7.078125 M 12.65625 7.078125 L 12.703125 7.125 L 12.65625 7.078125 M 13.734375 7.078125 L 13.78125 7.125 L 13.734375 7.078125 M 15.84375 7.078125 L 15.890625 7.125 L 15.84375 7.078125 M 16.359375 7.078125 L 16.359375 7.125 L 17.390625 7.125 L 16.359375 7.078125 M 21.515625 7.078125 L 21.515625 9.421875 L 21.5625 9.421875 C 21.5625 8.761719 21.769531 7.683594 21.515625 7.078125 M 8.8125 7.125 L 8.859375 7.171875 L 8.8125 7.125 M 9.609375 7.125 L 9.65625 7.171875 L 9.609375 7.125 M 12.703125 7.125 L 12.75 7.171875 L 12.703125 7.125 M 13.828125 7.125 L 13.875 7.171875 L 13.828125 7.125 M 17.859375 7.125 L 17.859375 9.375 L 17.90625 9.375 C 17.90625 8.742188 18.105469 7.707031 17.859375 7.125 M 18.75 7.125 L 18.75 9.421875 L 18.796875 9.421875 C 18.796875 8.777344 19 7.71875 18.75 7.125 M 8.765625 7.171875 L 8.8125 7.21875 L 8.765625 7.171875 M 9.5625 7.171875 L 9.609375 7.21875 L 9.5625 7.171875 M 11.546875 7.203125 L 11.5625 7.234375 L 11.546875 7.203125 M 12.75 7.171875 L 12.796875 7.21875 L 12.75 7.171875 M 13.875 7.171875 L 13.921875 7.21875 L 13.875 7.171875 M 8.71875 7.21875 L 8.765625 7.265625 L 8.71875 7.21875 M 9.515625 7.21875 L 9.5625 7.265625 L 9.515625 7.21875 M 12.328125 7.21875 L 12.328125 7.265625 L 12.5625 7.265625 L 12.328125 7.21875 M 12.796875 7.21875 L 12.84375 7.265625 L 12.796875 7.21875 M 13.96875 7.21875 L 14.015625 7.265625 L 13.96875 7.21875 M 8.671875 7.265625 L 8.71875 7.3125 L 8.671875 7.265625 M 9.46875 7.265625 L 9.515625 7.3125 L 9.46875 7.265625 M 12.234375 7.265625 L 12.28125 7.3125 L 12.234375 7.265625 M 12.609375 7.265625 L 12.65625 7.3125 L 12.609375 7.265625 M 12.84375 7.265625 L 12.890625 7.3125 L 12.84375 7.265625 M 14.046875 7.28125 L 14.078125 7.296875 L 14.046875 7.28125 M 8.625 7.3125 L 8.671875 7.359375 L 8.625 7.3125 M 9.421875 7.3125 L 9.46875 7.359375 L 9.421875 7.3125 M 12.1875 7.3125 L 12.234375 7.359375 L 12.1875 7.3125 M 12.65625 7.3125 L 12.703125 7.359375 L 12.65625 7.3125 M 12.890625 7.3125 L 12.9375 7.359375 L 12.890625 7.3125 M 14.140625 7.328125 L 14.171875 7.34375 L 14.140625 7.328125 M 8.578125 7.359375 L 8.625 7.40625 L 8.578125 7.359375 M 12.15625 7.390625 L 12.171875 7.421875 L 12.15625 7.390625 M 12.703125 7.359375 L 12.75 7.40625 L 12.703125 7.359375 M 12.9375 7.359375 L 12.984375 7.40625 L 12.9375 7.359375 M 14.203125 7.359375 L 14.25 7.40625 L 14.203125 7.359375 M 8.53125 7.40625 L 8.578125 7.453125 L 8.53125 7.40625 M 9.28125 7.40625 L 9.328125 7.453125 L 9.28125 7.40625 M 11.53125 7.40625 L 11.578125 7.453125 L 11.53125 7.40625 M 12.984375 7.40625 L 13.03125 7.453125 L 12.984375 7.40625 M 14.328125 7.421875 L 14.359375 7.4375 L 14.328125 7.421875 M 19.40625 7.40625 L 19.359375 8.953125 L 19.40625 8.953125 Z M 19.40625 7.40625 "/>
<path style=" stroke:none;fill-rule:nonzero;fill:rgb(1.176471%,59.607843%,54.117647%);fill-opacity:1;" d="M 19.40625 8.953125 L 20.859375 8.953125 C 20.941406 8.679688 21.042969 7.714844 20.859375 7.480469 C 20.734375 7.324219 19.578125 7.324219 19.453125 7.480469 C 19.25 7.742188 19.40625 8.625 19.40625 8.953125 Z M 19.40625 8.953125 "/>
<path style=" stroke:none;fill-rule:nonzero;fill:rgb(55.686275%,68.235294%,58.431373%);fill-opacity:1;" d="M 20.859375 7.40625 C 20.96875 7.859375 20.96875 8.5 20.859375 8.953125 C 21.050781 8.785156 21.050781 7.574219 20.859375 7.40625 M 8.484375 7.453125 L 8.53125 7.5 L 8.484375 7.453125 M 9.234375 7.453125 L 9.28125 7.5 L 9.234375 7.453125 M 9.515625 7.453125 L 9.515625 7.5 L 9.65625 7.5 L 9.515625 7.453125 M 13.03125 7.453125 L 13.078125 7.5 L 13.03125 7.453125 M 14.390625 7.453125 L 14.4375 7.5 L 14.390625 7.453125 M 16.40625 7.453125 L 16.40625 7.5 L 17.296875 7.5 L 17.25 8.90625 L 17.296875 8.90625 L 17.34375 7.453125 L 16.40625 7.453125 M 8.4375 7.5 L 8.484375 7.546875 L 8.4375 7.5 M 9.1875 7.5 L 9.234375 7.546875 L 9.1875 7.5 M 9.484375 7.53125 L 9.5 7.5625 L 9.484375 7.53125 M 13.078125 7.5 L 13.125 7.546875 L 13.078125 7.5 M 14.484375 7.5 L 14.484375 7.546875 L 14.625 7.546875 Z M 14.484375 7.5 "/>
<path style=" stroke:none;fill-rule:nonzero;fill:rgb(1.176471%,59.607843%,54.117647%);fill-opacity:1;" d="M 16.40625 7.5 C 16.40625 7.761719 16.269531 8.640625 16.480469 8.8125 C 16.648438 8.941406 17.09375 8.859375 17.296875 8.859375 L 17.296875 7.5 Z M 16.40625 7.5 "/>
<path style=" stroke:none;fill-rule:nonzero;fill:rgb(55.686275%,68.235294%,58.431373%);fill-opacity:1;" d="M 8.390625 7.546875 L 8.4375 7.59375 L 8.390625 7.546875 M 9.140625 7.546875 L 9.1875 7.59375 L 9.140625 7.546875 M 12.75 7.546875 L 12.796875 7.59375 L 12.75 7.546875 M 13.125 7.546875 L 13.171875 7.59375 L 13.125 7.546875 M 14.625 7.546875 L 14.671875 7.59375 L 14.625 7.546875 M 8.34375 7.59375 L 8.390625 7.640625 L 8.34375 7.59375 M 9.046875 7.59375 L 9.09375 7.640625 L 9.046875 7.59375 M 13.171875 7.59375 L 13.21875 7.640625 L 13.171875 7.59375 M 14.671875 7.59375 L 14.71875 7.640625 L 14.671875 7.59375 M 8.25 7.640625 L 8.296875 7.6875 L 8.25 7.640625 M 9 7.640625 L 9.046875 7.6875 L 9 7.640625 M 13.21875 7.640625 L 13.265625 7.6875 L 13.21875 7.640625 M 8.203125 7.6875 L 8.25 7.734375 L 8.203125 7.6875 M 8.953125 7.6875 L 9 7.734375 L 8.953125 7.6875 M 12.703125 7.6875 L 12.65625 7.78125 L 12.75 7.78125 L 12.703125 7.6875 M 13.265625 7.6875 L 13.3125 7.734375 L 13.265625 7.6875 M 8.15625 7.734375 L 8.203125 7.78125 L 8.15625 7.734375 M 8.859375 7.734375 L 8.90625 7.78125 L 8.859375 7.734375 M 9.46875 7.734375 L 9.515625 7.78125 L 9.46875 7.734375 M 13.3125 7.734375 L 13.359375 7.78125 L 13.3125 7.734375 M 8.109375 7.78125 L 8.15625 7.828125 L 8.109375 7.78125 M 8.8125 7.78125 L 8.859375 7.828125 L 8.8125 7.78125 M 9.515625 7.78125 L 9.5625 7.828125 L 9.515625 7.78125 M 12.609375 7.78125 L 12.65625 7.828125 L 12.609375 7.78125 M 13.40625 7.78125 L 13.453125 7.828125 L 13.40625 7.78125 M 8.0625 7.828125 L 8.109375 7.875 L 8.0625 7.828125 M 8.71875 7.828125 L 8.765625 7.875 L 8.71875 7.828125 M 9.5625 7.828125 L 9.5625 7.875 L 10.921875 7.875 L 9.5625 7.828125 M 11.53125 7.828125 L 11.53125 7.875 L 12.609375 7.875 L 11.53125 7.828125 M 13.453125 7.828125 L 13.5 7.875 L 13.453125 7.828125 M 14.34375 7.828125 L 14.34375 7.875 L 14.484375 7.875 L 14.34375 7.828125 M 14.625 7.828125 L 14.671875 7.875 L 14.625 7.828125 M 7.96875 7.875 L 8.015625 7.921875 L 7.96875 7.875 M 8.671875 7.875 L 8.71875 7.921875 L 8.671875 7.875 M 10.921875 7.875 L 10.921875 9.421875 L 10.96875 9.421875 L 10.921875 7.875 M 13.5 7.875 L 13.546875 7.921875 L 13.5 7.875 M 8.578125 7.921875 L 8.625 7.96875 L 8.578125 7.921875 M 13.59375 7.921875 L 13.640625 7.96875 L 13.59375 7.921875 M 7.875 7.96875 L 7.875 8.15625 L 7.921875 8.15625 L 7.875 7.96875 M 8.515625 7.984375 L 8.546875 8 L 8.515625 7.984375 M 13.640625 7.96875 L 13.6875 8.015625 L 13.640625 7.96875 M 14.296875 7.96875 L 14.34375 8.015625 L 14.296875 7.96875 M 8.4375 8.015625 L 8.484375 8.0625 L 8.4375 8.015625 M 13.6875 8.015625 L 13.734375 8.0625 L 13.6875 8.015625 M 14.25 8.015625 L 14.296875 8.0625 L 14.25 8.015625 M 8.34375 8.0625 L 8.390625 8.109375 L 8.34375 8.0625 M 13.78125 8.0625 L 13.828125 8.109375 L 13.78125 8.0625 M 14.203125 8.0625 L 14.25 8.109375 L 14.203125 8.0625 M 8.28125 8.125 L 8.3125 8.140625 L 8.28125 8.125 M 13.875 8.109375 L 13.875 8.15625 L 14.015625 8.15625 L 13.875 8.109375 M 14.09375 8.125 L 14.125 8.140625 L 14.09375 8.125 M 7.921875 8.15625 L 7.96875 8.203125 L 7.921875 8.15625 M 8.1875 8.171875 L 8.21875 8.1875 L 8.1875 8.171875 M 7.96875 8.203125 L 7.96875 8.25 L 8.15625 8.25 L 7.96875 8.203125 M 16.40625 8.8125 L 16.453125 8.859375 L 16.40625 8.8125 M 6.234375 8.859375 L 6.28125 8.90625 L 6.234375 8.859375 M 19.453125 8.90625 L 19.5 8.953125 L 19.453125 8.90625 M 20.71875 8.90625 L 20.765625 8.953125 L 20.71875 8.90625 M 16.40625 9.234375 L 16.453125 9.28125 L 16.40625 9.234375 M 17.296875 9.234375 L 17.34375 9.28125 L 17.296875 9.234375 M 2.625 9.28125 L 2.625 9.515625 L 2.671875 9.515625 L 2.625 9.28125 M 6.234375 9.28125 L 6.28125 9.328125 L 6.234375 9.28125 M 19.359375 9.328125 L 19.40625 9.375 L 19.359375 9.328125 M 20.921875 9.359375 L 20.9375 9.390625 L 20.921875 9.359375 M 6.25 9.40625 L 6.265625 9.4375 L 6.25 9.40625 M 17.34375 9.375 L 17.390625 9.421875 L 17.34375 9.375 M 6.84375 9.421875 L 6.84375 9.5625 L 6.890625 9.5625 L 6.84375 9.421875 M 17.8125 9.421875 L 17.859375 9.46875 L 17.8125 9.421875 M 19.359375 9.421875 L 19.40625 9.46875 L 19.359375 9.421875 M 21.46875 9.421875 L 21.515625 9.46875 L 21.46875 9.421875 M 10.9375 9.5 L 10.953125 9.53125 L 10.9375 9.5 M 17.4375 9.46875 L 17.484375 9.515625 L 17.4375 9.46875 M 17.765625 9.46875 L 17.8125 9.515625 L 17.765625 9.46875 M 18.796875 9.46875 L 18.84375 9.515625 L 18.796875 9.46875 M 19.3125 9.46875 L 19.359375 9.515625 L 19.3125 9.46875 M 20.953125 9.46875 L 21 9.515625 L 20.953125 9.46875 M 6.296875 9.546875 L 6.3125 9.578125 L 6.296875 9.546875 M 11.5 9.546875 L 11.515625 9.578125 L 11.5 9.546875 M 15.859375 9.546875 L 15.875 9.578125 L 15.859375 9.546875 M 16.375 9.546875 L 16.390625 9.578125 L 16.375 9.546875 M 17.484375 9.515625 L 17.484375 9.5625 L 17.71875 9.5625 L 17.484375 9.515625 M 21 9.515625 L 21.046875 9.5625 L 21 9.515625 M 21.421875 9.515625 L 21.46875 9.5625 L 21.421875 9.515625 M 2.0625 9.5625 L 2.109375 9.609375 L 2.0625 9.5625 M 2.59375 9.59375 L 2.609375 9.625 L 2.59375 9.59375 M 6.796875 9.5625 L 6.84375 9.609375 L 6.796875 9.5625 M 21.125 9.578125 L 21.15625 9.59375 L 21.125 9.578125 M 21.3125 9.578125 L 21.34375 9.59375 L 21.3125 9.578125 M 2.109375 9.609375 L 2.15625 9.65625 L 2.109375 9.609375 M 6.328125 9.609375 L 6.375 9.65625 L 6.328125 9.609375 M 10.96875 9.609375 L 11.015625 9.65625 L 10.96875 9.609375 M 11.4375 9.609375 L 11.484375 9.65625 L 11.4375 9.609375 M 15.890625 9.609375 L 15.9375 9.65625 L 15.890625 9.609375 M 16.3125 9.609375 L 16.359375 9.65625 L 16.3125 9.609375 M 18.9375 9.609375 L 18.984375 9.65625 L 18.9375 9.609375 M 19.171875 9.609375 L 19.21875 9.65625 L 19.171875 9.609375 M 2.15625 9.65625 L 2.203125 9.703125 L 2.15625 9.65625 M 2.484375 9.65625 L 2.53125 9.703125 L 2.484375 9.65625 M 6.375 9.65625 L 6.421875 9.703125 L 6.375 9.65625 M 6.703125 9.65625 L 6.75 9.703125 L 6.703125 9.65625 M 11.0625 9.65625 L 11.109375 9.703125 L 11.0625 9.65625 M 15.9375 9.65625 L 15.984375 9.703125 L 15.9375 9.65625 M 2.25 9.703125 L 2.25 9.75 L 2.484375 9.75 L 2.25 9.703125 M 6.46875 9.703125 L 6.46875 9.75 L 6.703125 9.75 L 6.46875 9.703125 M 11.109375 9.703125 L 11.109375 9.75 L 11.34375 9.75 L 11.109375 9.703125 M 16.03125 9.703125 L 16.03125 9.75 L 16.21875 9.75 L 16.03125 9.703125 M 21.09375 12.046875 L 21.09375 12.09375 L 21.328125 12.046875 Z M 21.09375 12.046875 "/>
<path style=" stroke:none;fill-rule:nonzero;fill:rgb(98.039216%,98.823529%,98.823529%);fill-opacity:1;" d="M 18.9375 12.84375 L 18.9375 17.015625 C 18.9375 17.363281 18.796875 18.277344 19.359375 18.25 C 19.890625 18.226562 19.734375 17.363281 19.734375 17.015625 L 19.734375 12.84375 C 20.234375 12.84375 21.054688 13 21.511719 12.804688 C 21.890625 12.640625 21.769531 12.078125 21.375 12.039062 C 21.085938 12.011719 20.945312 12.300781 20.671875 12.324219 C 19.796875 12.402344 18.878906 12.328125 18 12.328125 C 17.765625 12.328125 17.117188 12.214844 16.96875 12.4375 C 16.835938 12.636719 17.003906 12.824219 17.203125 12.839844 C 17.773438 12.890625 18.367188 12.84375 18.9375 12.84375 Z M 18.9375 12.84375 "/>
<path style=" stroke:none;fill-rule:nonzero;fill:rgb(55.686275%,68.235294%,58.431373%);fill-opacity:1;" d="M 21.40625 12.015625 L 21.4375 12.03125 L 21.40625 12.015625 M 3.46875 12.046875 L 3.46875 12.09375 L 3.703125 12.09375 L 3.46875 12.046875 M 21.515625 12.046875 L 21.5625 12.09375 L 21.515625 12.046875 M 3.140625 12.328125 L 3.421875 12.140625 Z M 3.140625 12.328125 "/>
<path style=" stroke:none;fill-rule:nonzero;fill:rgb(98.039216%,98.823529%,98.823529%);fill-opacity:1;" d="M 3.421875 12.128906 C 2.902344 12.328125 3.140625 13.742188 3.140625 14.203125 C 3.140625 15.960938 3.222656 17.828125 2.585938 19.5 C 2.453125 19.851562 2.222656 20.179688 2.101562 20.53125 C 2.050781 20.683594 2.09375 20.890625 2.296875 20.828125 C 2.753906 20.691406 3.113281 19.847656 3.308594 19.453125 C 4.074219 17.914062 3.9375 15.789062 3.9375 14.109375 C 3.9375 13.609375 4.101562 12.941406 4.019531 12.46875 C 3.972656 12.191406 3.683594 12.027344 3.421875 12.128906 Z M 3.421875 12.128906 "/>
<path style=" stroke:none;fill-rule:nonzero;fill:rgb(55.686275%,68.235294%,58.431373%);fill-opacity:1;" d="M 3.75 12.09375 L 3.796875 12.140625 L 3.75 12.09375 M 5.71875 12.46875 L 5.765625 12.46875 L 6.140625 12.140625 C 5.914062 12.070312 5.773438 12.269531 5.71875 12.46875 Z M 5.71875 12.46875 "/>
<path style=" stroke:none;fill-rule:nonzero;fill:rgb(98.039216%,98.823529%,98.823529%);fill-opacity:1;" d="M 6.515625 17.53125 L 6.515625 13.359375 C 6.515625 13.03125 6.667969 12.050781 6.09375 12.136719 C 5.570312 12.214844 5.71875 13.039062 5.71875 13.40625 L 5.71875 16.921875 C 5.71875 17.257812 5.59375 17.917969 5.871094 18.164062 C 6.136719 18.394531 6.460938 18.105469 6.75 18.09375 C 7.5625 18.0625 8.375 18.105469 9.1875 18.09375 C 9.472656 18.089844 9.835938 17.933594 9.753906 17.578125 C 9.703125 17.359375 9.503906 17.226562 9.28125 17.261719 C 9.066406 17.292969 8.933594 17.492188 8.71875 17.523438 C 8.019531 17.632812 7.226562 17.53125 6.515625 17.53125 Z M 6.515625 17.53125 "/>
<path style=" stroke:none;fill-rule:nonzero;fill:rgb(55.686275%,68.235294%,58.431373%);fill-opacity:1;" d="M 6.21875 12.109375 L 6.25 12.125 L 6.21875 12.109375 M 11.203125 12.09375 L 11.203125 12.140625 L 11.484375 12.140625 L 11.203125 12.09375 M 15.3125 12.109375 L 15.34375 12.125 Z M 15.3125 12.109375 "/>
<path style=" stroke:none;fill-rule:nonzero;fill:rgb(98.039216%,98.823529%,98.823529%);fill-opacity:1;" d="M 11.765625 15.703125 C 12.734375 15.703125 13.703125 15.699219 14.671875 15.703125 C 14.984375 15.703125 15.351562 16.003906 15.644531 15.828125 C 15.878906 15.691406 15.796875 15.273438 15.796875 15.046875 L 15.796875 12.9375 C 15.796875 12.710938 15.867188 12.339844 15.644531 12.195312 C 15.355469 12.003906 14.90625 12.328125 14.578125 12.328125 C 13.722656 12.328125 12.855469 12.363281 12 12.328125 C 11.730469 12.316406 11.53125 12.101562 11.25 12.152344 C 10.800781 12.234375 10.96875 13.117188 10.96875 13.453125 L 10.96875 16.96875 C 10.96875 17.304688 10.835938 17.980469 11.160156 18.195312 C 11.464844 18.390625 11.722656 18.101562 11.757812 17.8125 C 11.835938 17.125 11.765625 16.394531 11.765625 15.703125 Z M 11.765625 15.703125 "/>
<path style=" stroke:none;fill-rule:nonzero;fill:rgb(55.686275%,68.235294%,58.431373%);fill-opacity:1;" d="M 15.421875 12.09375 L 15.421875 12.140625 L 15.5625 12.140625 L 15.421875 12.09375 M 21 12.09375 L 21.046875 12.140625 L 21 12.09375 M 21.609375 12.09375 L 21.65625 12.140625 L 21.609375 12.09375 M 3.84375 12.140625 L 3.890625 12.1875 L 3.84375 12.140625 M 6.328125 12.140625 L 6.375 12.1875 L 6.328125 12.140625 M 11.109375 12.140625 L 11.15625 12.1875 L 11.109375 12.140625 M 11.578125 12.140625 L 11.625 12.1875 L 11.578125 12.140625 M 15.1875 12.140625 L 15.234375 12.1875 L 15.1875 12.140625 M 15.609375 12.140625 L 15.65625 12.1875 L 15.609375 12.140625 M 3.890625 12.1875 L 3.9375 12.234375 L 3.890625 12.1875 M 6.375 12.1875 L 6.421875 12.234375 L 6.375 12.1875 M 15.703125 12.1875 L 15.75 12.234375 L 15.703125 12.1875 M 20.953125 12.1875 L 21 12.234375 L 20.953125 12.1875 M 3.9375 12.234375 L 3.984375 12.28125 L 3.9375 12.234375 M 6.421875 12.234375 L 6.46875 12.28125 L 6.421875 12.234375 M 21.703125 12.234375 L 21.75 12.28125 L 21.703125 12.234375 M 4 12.3125 L 4.015625 12.34375 L 4 12.3125 M 10.96875 12.28125 L 11.015625 12.328125 L 10.96875 12.28125 M 11.71875 12.28125 L 11.71875 12.328125 L 15.046875 12.328125 L 14.015625 12.28125 L 11.71875 12.28125 M 15.75 12.28125 L 15.796875 12.328125 L 15.75 12.28125 M 17.0625 12.28125 L 17.0625 12.328125 L 20.90625 12.328125 L 19.734375 12.28125 L 17.0625 12.28125 M 6.46875 12.328125 L 6.515625 12.375 L 6.46875 12.328125 M 3.09375 12.375 L 3.09375 13.5 L 3.140625 13.5 L 3.09375 12.375 M 4.03125 12.375 L 4.03125 12.703125 L 4.078125 12.703125 L 4.03125 12.375 M 6.515625 12.375 L 6.5625 12.421875 L 6.515625 12.375 M 10.921875 12.375 L 10.921875 18 L 10.96875 18 L 10.96875 14.0625 L 10.921875 12.375 M 15.796875 12.375 L 15.796875 15.375 L 15.84375 15.375 L 15.84375 13.3125 L 15.796875 12.375 M 16.921875 12.375 L 16.96875 12.421875 L 16.921875 12.375 M 6.515625 12.46875 L 6.515625 12.609375 L 6.5625 12.609375 L 6.515625 12.46875 M 16.875 12.46875 L 16.875 12.703125 L 16.921875 12.703125 L 16.875 12.46875 M 21.703125 12.609375 L 21.75 12.65625 L 21.703125 12.609375 M 6.53125 12.6875 L 6.546875 12.71875 L 6.53125 12.6875 M 21.5625 12.75 L 21.609375 12.796875 L 21.5625 12.75 M 16.96875 12.796875 L 17.015625 12.84375 L 16.96875 12.796875 M 21.515625 12.796875 L 21.5625 12.84375 L 21.515625 12.796875 M 3.9375 12.84375 L 3.9375 14.25 L 3.984375 14.25 Z M 3.9375 12.84375 "/>
<path style=" stroke:none;fill-rule:nonzero;fill:rgb(1.176471%,59.607843%,54.117647%);fill-opacity:1;" d="M 11.765625 12.84375 L 11.765625 14.484375 L 11.8125 15.113281 L 12.609375 15.1875 L 15 15.1875 L 15 12.84375 Z M 11.765625 12.84375 "/>
<path style=" stroke:none;fill-rule:nonzero;fill:rgb(55.686275%,68.235294%,58.431373%);fill-opacity:1;" d="M 15 12.84375 L 15 15.1875 L 15.046875 15.1875 C 15.046875 14.527344 15.253906 13.449219 15 12.84375 M 17.109375 12.84375 L 17.109375 12.890625 L 18.9375 12.890625 C 18.457031 12.6875 17.632812 12.84375 17.109375 12.84375 M 19.734375 12.84375 L 19.734375 12.9375 L 19.828125 12.84375 L 19.734375 12.84375 M 19.875 12.84375 L 19.875 12.890625 L 21.421875 12.890625 L 19.875 12.84375 M 11.71875 13.078125 L 11.71875 15.046875 L 11.765625 15.046875 C 11.765625 14.488281 11.933594 13.59375 11.71875 13.078125 Z M 11.71875 13.078125 "/>
<path style=" stroke:none;fill-rule:nonzero;fill:rgb(80.392157%,36.470588%,29.411765%);fill-opacity:1;" d="M 13.265625 13.40625 L 13.265625 13.453125 L 13.5 13.453125 L 13.265625 13.40625 M 13.125 13.453125 L 13.171875 13.5 Z M 13.125 13.453125 "/>
<path style=" stroke:none;fill-rule:nonzero;fill:rgb(98.823529%,1.568627%,1.568627%);fill-opacity:1;" d="M 13.171875 13.488281 C 12.480469 13.753906 12.917969 14.796875 13.59375 14.535156 C 14.28125 14.269531 13.847656 13.226562 13.171875 13.488281 Z M 13.171875 13.488281 "/>
<path style=" stroke:none;fill-rule:nonzero;fill:rgb(80.392157%,36.470588%,29.411765%);fill-opacity:1;" d="M 13.59375 13.453125 L 13.640625 13.5 L 13.59375 13.453125 M 13.03125 13.5 L 13.078125 13.546875 L 13.03125 13.5 M 13.6875 13.5 L 13.734375 13.546875 L 13.6875 13.5 M 12.984375 13.546875 L 13.03125 13.59375 L 12.984375 13.546875 M 13.734375 13.546875 L 13.78125 13.59375 L 13.734375 13.546875 M 12.9375 13.59375 L 12.984375 13.640625 L 12.9375 13.59375 M 13.78125 13.59375 L 13.828125 13.640625 L 13.78125 13.59375 M 12.890625 13.640625 L 12.9375 13.6875 L 12.890625 13.640625 M 13.828125 13.640625 L 13.875 13.6875 Z M 13.828125 13.640625 "/>
<path style=" stroke:none;fill-rule:nonzero;fill:rgb(55.686275%,68.235294%,58.431373%);fill-opacity:1;" d="M 12.84375 13.6875 L 12.890625 13.734375 L 12.84375 13.6875 M 13.875 13.6875 L 13.921875 13.734375 Z M 13.875 13.6875 "/>
<path style=" stroke:none;fill-rule:nonzero;fill:rgb(80.392157%,36.470588%,29.411765%);fill-opacity:1;" d="M 12.84375 13.734375 L 12.890625 13.78125 L 12.84375 13.734375 M 13.875 13.734375 L 13.921875 13.78125 Z M 13.875 13.734375 "/>
<path style=" stroke:none;fill-rule:nonzero;fill:rgb(55.686275%,68.235294%,58.431373%);fill-opacity:1;" d="M 13.921875 13.78125 L 13.96875 13.828125 Z M 13.921875 13.78125 "/>
<path style=" stroke:none;fill-rule:nonzero;fill:rgb(80.392157%,36.470588%,29.411765%);fill-opacity:1;" d="M 12.796875 13.828125 L 12.84375 13.875 L 12.796875 13.828125 M 13.921875 13.828125 L 13.96875 13.875 L 13.921875 13.828125 M 12.796875 14.109375 L 12.84375 14.15625 L 12.796875 14.109375 M 13.9375 14.140625 L 13.953125 14.171875 Z M 13.9375 14.140625 "/>
<path style=" stroke:none;fill-rule:nonzero;fill:rgb(55.686275%,68.235294%,58.431373%);fill-opacity:1;" d="M 12.796875 14.15625 L 12.84375 14.203125 L 12.796875 14.15625 M 13.921875 14.203125 L 13.96875 14.25 Z M 13.921875 14.203125 "/>
<path style=" stroke:none;fill-rule:nonzero;fill:rgb(80.392157%,36.470588%,29.411765%);fill-opacity:1;" d="M 12.84375 14.25 L 12.890625 14.296875 L 12.84375 14.25 M 13.875 14.25 L 13.921875 14.296875 Z M 13.875 14.25 "/>
<path style=" stroke:none;fill-rule:nonzero;fill:rgb(55.686275%,68.235294%,58.431373%);fill-opacity:1;" d="M 13.875 14.296875 L 13.921875 14.34375 Z M 13.875 14.296875 "/>
<path style=" stroke:none;fill-rule:nonzero;fill:rgb(80.392157%,36.470588%,29.411765%);fill-opacity:1;" d="M 12.890625 14.34375 L 12.9375 14.390625 L 12.890625 14.34375 M 13.828125 14.34375 L 13.875 14.390625 L 13.828125 14.34375 M 12.9375 14.390625 L 12.984375 14.4375 L 12.9375 14.390625 M 13.78125 14.390625 L 13.828125 14.4375 L 13.78125 14.390625 M 12.984375 14.4375 L 13.03125 14.484375 L 12.984375 14.4375 M 13.734375 14.4375 L 13.78125 14.484375 Z M 13.734375 14.4375 "/>
<path style=" stroke:none;fill-rule:nonzero;fill:rgb(55.686275%,68.235294%,58.431373%);fill-opacity:1;" d="M 13.03125 14.484375 L 13.078125 14.53125 L 13.03125 14.484375 M 13.6875 14.484375 L 13.734375 14.53125 Z M 13.6875 14.484375 "/>
<path style=" stroke:none;fill-rule:nonzero;fill:rgb(80.392157%,36.470588%,29.411765%);fill-opacity:1;" d="M 13.15625 14.546875 L 13.1875 14.5625 L 13.15625 14.546875 M 13.546875 14.53125 L 13.59375 14.578125 Z M 13.546875 14.53125 "/>
<path style=" stroke:none;fill-rule:nonzero;fill:rgb(55.686275%,68.235294%,58.431373%);fill-opacity:1;" d="M 13.59375 14.53125 L 13.640625 14.578125 L 13.59375 14.53125 M 13.265625 14.578125 L 13.265625 14.625 L 13.5 14.625 L 13.265625 14.578125 M 3.09375 14.625 L 3.09375 16.171875 L 3.140625 16.171875 L 3.09375 14.625 M 3.890625 14.859375 L 3.890625 15.75 L 3.9375 15.75 L 3.890625 14.859375 M 11.765625 15.140625 L 11.8125 15.1875 L 11.765625 15.140625 M 15.796875 15.421875 L 15.796875 15.5625 L 15.84375 15.5625 L 15.796875 15.421875 M 11.765625 15.703125 L 11.765625 15.75 L 15.046875 15.75 L 14.015625 15.703125 L 11.765625 15.703125 M 15.75 15.703125 L 15.796875 15.75 L 15.75 15.703125 M 15.09375 15.75 L 15.140625 15.796875 L 15.09375 15.75 M 15.140625 15.796875 L 15.1875 15.84375 L 15.140625 15.796875 M 15.703125 15.796875 L 15.75 15.84375 L 15.703125 15.796875 M 15.1875 15.84375 L 15.234375 15.890625 L 15.1875 15.84375 M 15.59375 15.859375 L 15.625 15.875 L 15.59375 15.859375 M 15.328125 15.890625 L 15.328125 15.9375 L 15.46875 15.9375 L 15.328125 15.890625 M 3.84375 16.21875 L 3.84375 16.875 L 3.890625 16.875 L 3.84375 16.21875 M 3.046875 16.640625 L 3.046875 17.25 L 3.09375 17.25 L 3.046875 16.640625 M 3.796875 17.109375 L 3.796875 17.578125 L 3.84375 17.578125 L 3.796875 17.109375 M 9.28125 17.203125 L 9.28125 17.25 L 9.421875 17.25 L 9.28125 17.203125 M 6.515625 17.25 L 6.515625 17.390625 L 6.5625 17.390625 L 6.515625 17.25 M 9.125 17.265625 L 9.15625 17.28125 L 9.125 17.265625 M 9.546875 17.265625 L 9.578125 17.28125 L 9.546875 17.265625 M 9.046875 17.296875 L 9.09375 17.34375 L 9.046875 17.296875 M 9.609375 17.296875 L 9.65625 17.34375 L 9.609375 17.296875 M 3 17.34375 L 3 17.625 L 3.046875 17.625 L 3 17.34375 M 9 17.34375 L 9.046875 17.390625 L 9 17.34375 M 9.65625 17.34375 L 9.703125 17.390625 L 9.65625 17.34375 M 9.71875 17.421875 L 9.734375 17.453125 L 9.71875 17.421875 M 6.515625 17.4375 L 7.125 17.53125 L 8.765625 17.53125 L 8.765625 17.484375 L 6.515625 17.4375 M 8.84375 17.5 L 8.875 17.515625 L 8.84375 17.5 M 9.765625 17.5625 L 9.78125 17.59375 L 9.765625 17.5625 M 3.75 17.671875 L 3.75 18 L 3.796875 18 L 3.75 17.671875 M 9.765625 17.75 L 9.78125 17.78125 L 9.765625 17.75 M 2.953125 17.765625 L 2.953125 18 L 3 18 L 2.953125 17.765625 M 9.703125 17.859375 L 9.75 17.90625 L 9.703125 17.859375 M 9.65625 17.90625 L 9.703125 17.953125 L 9.65625 17.90625 M 11.734375 17.9375 L 11.75 17.96875 L 11.734375 17.9375 M 18.953125 17.9375 L 18.96875 17.96875 L 18.953125 17.9375 M 5.71875 17.953125 L 5.71875 18.09375 L 5.765625 18.09375 L 5.71875 17.953125 M 9.609375 17.953125 L 9.65625 18 L 9.609375 17.953125 M 9.5625 18 L 9.609375 18.046875 L 9.5625 18 M 10.96875 18 L 11.015625 18.046875 L 10.96875 18 M 19.6875 18 L 19.734375 18.046875 L 19.6875 18 M 9.46875 18.046875 L 9.515625 18.09375 L 9.46875 18.046875 M 18.984375 18.046875 L 19.03125 18.09375 L 18.984375 18.046875 M 3.703125 18.09375 L 3.703125 18.28125 L 3.75 18.28125 L 3.703125 18.09375 M 5.765625 18.09375 L 5.8125 18.140625 L 5.765625 18.09375 M 6.46875 18.09375 L 6.515625 18.140625 L 6.46875 18.09375 M 11.015625 18.09375 L 11.0625 18.140625 L 11.015625 18.09375 M 19.640625 18.09375 L 19.6875 18.140625 L 19.640625 18.09375 M 2.921875 18.171875 L 2.9375 18.203125 L 2.921875 18.171875 M 5.8125 18.140625 L 5.859375 18.1875 L 5.8125 18.140625 M 11.0625 18.140625 L 11.109375 18.1875 L 11.0625 18.140625 M 19.59375 18.140625 L 19.640625 18.1875 L 19.59375 18.140625 M 5.859375 18.1875 L 5.90625 18.234375 L 5.859375 18.1875 M 6.328125 18.1875 L 6.1875 18.234375 L 6.1875 18.28125 L 6.328125 18.1875 M 11.109375 18.1875 L 11.15625 18.234375 L 11.109375 18.1875 M 11.5625 18.203125 L 11.59375 18.21875 L 11.5625 18.203125 M 19.546875 18.1875 L 19.59375 18.234375 L 19.546875 18.1875 M 5.90625 18.234375 L 5.90625 18.28125 L 6.046875 18.28125 L 5.90625 18.234375 M 11.234375 18.25 L 11.265625 18.265625 L 11.234375 18.25 M 11.4375 18.234375 L 11.484375 18.28125 L 11.4375 18.234375 M 19.125 18.234375 L 19.125 18.28125 L 19.3125 18.28125 L 19.125 18.234375 M 19.4375 18.25 L 19.46875 18.265625 L 19.4375 18.25 M 3.65625 18.328125 L 3.65625 18.46875 L 3.703125 18.46875 L 3.65625 18.328125 M 2.875 18.40625 L 2.890625 18.4375 L 2.875 18.40625 M 2.8125 18.5625 L 2.8125 18.703125 L 2.859375 18.703125 L 2.8125 18.5625 M 3.625 18.59375 L 3.640625 18.625 L 3.625 18.59375 M 3.5625 18.703125 L 3.609375 18.75 L 3.5625 18.703125 M 2.765625 18.75 L 2.765625 18.890625 L 2.8125 18.890625 L 2.765625 18.75 M 3.53125 18.875 L 3.546875 18.90625 L 3.53125 18.875 M 2.734375 18.96875 L 2.75 19 L 2.734375 18.96875 M 3.484375 19.015625 L 3.5 19.046875 L 3.484375 19.015625 M 2.671875 19.125 L 2.71875 19.171875 L 2.671875 19.125 M 3.4375 19.15625 L 3.453125 19.1875 L 3.4375 19.15625 M 2.625 19.21875 L 2.625 19.359375 L 2.671875 19.359375 L 2.625 19.21875 M 3.34375 19.34375 L 3.359375 19.375 L 3.34375 19.34375 M 2.59375 19.4375 L 2.609375 19.46875 L 2.59375 19.4375 M 3.28125 19.453125 L 3.328125 19.5 L 3.28125 19.453125 M 2.546875 19.53125 L 2.5625 19.5625 L 2.546875 19.53125 M 3.234375 19.546875 L 3.28125 19.59375 L 3.234375 19.546875 M 3.203125 19.625 L 3.21875 19.65625 L 3.203125 19.625 M 2.5 19.671875 L 2.515625 19.703125 L 2.5 19.671875 M 3.15625 19.71875 L 3.171875 19.75 L 3.15625 19.71875 M 2.4375 19.78125 L 2.484375 19.828125 L 2.4375 19.78125 M 3.09375 19.828125 L 3.140625 19.875 L 3.09375 19.828125 M 2.390625 19.875 L 2.4375 19.921875 L 2.390625 19.875 M 3.046875 19.875 L 3.09375 19.921875 L 3.046875 19.875 M 2.34375 19.96875 L 2.390625 20.015625 L 2.34375 19.96875 M 3 19.96875 L 3.046875 20.015625 L 3 19.96875 M 2.96875 20.046875 L 2.984375 20.078125 L 2.96875 20.046875 M 2.3125 20.09375 L 2.328125 20.125 L 2.3125 20.09375 M 2.90625 20.109375 L 2.953125 20.15625 L 2.90625 20.109375 M 2.265625 20.1875 L 2.28125 20.21875 L 2.265625 20.1875 M 2.859375 20.203125 L 2.90625 20.25 L 2.859375 20.203125 M 2.203125 20.25 L 2.25 20.296875 L 2.203125 20.25 M 2.8125 20.25 L 2.859375 20.296875 L 2.8125 20.25 M 2.78125 20.328125 L 2.796875 20.359375 L 2.78125 20.328125 M 2.15625 20.34375 L 2.203125 20.390625 L 2.15625 20.34375 M 2.71875 20.390625 L 2.765625 20.4375 L 2.71875 20.390625 M 2.109375 20.4375 L 2.15625 20.484375 L 2.109375 20.4375 M 2.671875 20.4375 L 2.71875 20.484375 L 2.671875 20.4375 M 2.0625 20.484375 L 2.109375 20.53125 L 2.0625 20.484375 M 2.625 20.484375 L 2.671875 20.53125 L 2.625 20.484375 M 2.015625 20.578125 L 2.015625 20.765625 L 2.0625 20.765625 L 2.015625 20.578125 M 2.578125 20.578125 L 2.625 20.625 L 2.578125 20.578125 M 2.53125 20.625 L 2.578125 20.671875 L 2.53125 20.625 M 2.484375 20.671875 L 2.53125 20.71875 L 2.484375 20.671875 M 2.4375 20.71875 L 2.484375 20.765625 L 2.4375 20.71875 M 2.390625 20.765625 L 2.4375 20.8125 L 2.390625 20.765625 M 2.34375 20.8125 L 2.390625 20.859375 L 2.34375 20.8125 M 2.15625 20.859375 L 2.15625 20.90625 L 2.296875 20.90625 L 2.15625 20.859375 M 0.0625 22.203125 L 0.078125 22.234375 L 0.0625 22.203125 M 23.90625 22.171875 L 23.90625 22.3125 L 23.953125 22.3125 L 23.90625 22.171875 M 0.09375 22.3125 L 0.140625 22.359375 L 0.09375 22.3125 M 23.875 22.34375 L 23.890625 22.375 L 23.875 22.34375 M 0.15625 22.4375 L 0.171875 22.46875 L 0.15625 22.4375 M 23.828125 22.4375 L 23.84375 22.46875 L 23.828125 22.4375 M 0.1875 22.5 L 0.234375 22.546875 L 0.1875 22.5 M 23.765625 22.5 L 23.8125 22.546875 L 23.765625 22.5 M 23.71875 22.59375 L 23.765625 22.640625 L 23.71875 22.59375 M 0.28125 22.640625 L 0.328125 22.6875 L 0.28125 22.640625 M 23.6875 22.671875 L 23.703125 22.703125 L 23.6875 22.671875 M 23.625 22.734375 L 23.671875 22.78125 L 23.625 22.734375 M 23.578125 22.828125 L 23.625 22.875 L 23.578125 22.828125 M 23.53125 22.875 L 23.578125 22.921875 L 23.53125 22.875 M 0.46875 22.921875 L 0.515625 22.96875 L 0.46875 22.921875 M 23.484375 22.921875 L 23.53125 22.96875 L 23.484375 22.921875 M 0.53125 23 L 0.546875 23.03125 L 0.53125 23 M 23.453125 23 L 23.46875 23.03125 L 23.453125 23 M 0.5625 23.0625 L 0.609375 23.109375 L 0.5625 23.0625 M 23.390625 23.0625 L 23.4375 23.109375 L 23.390625 23.0625 M 0.609375 23.109375 L 0.65625 23.15625 L 0.609375 23.109375 M 23.34375 23.109375 L 23.390625 23.15625 L 23.34375 23.109375 M 0.65625 23.15625 L 0.703125 23.203125 L 0.65625 23.15625 M 0.703125 23.203125 L 0.75 23.25 L 0.703125 23.203125 M 23.25 23.203125 L 23.296875 23.25 L 23.25 23.203125 M 0.75 23.25 L 0.796875 23.296875 L 0.75 23.25 M 23.203125 23.25 L 23.25 23.296875 L 23.203125 23.25 M 0.796875 23.296875 L 0.84375 23.34375 L 0.796875 23.296875 M 23.15625 23.296875 L 23.203125 23.34375 L 23.15625 23.296875 M 0.84375 23.34375 L 0.890625 23.390625 L 0.84375 23.34375 M 23.109375 23.34375 L 23.15625 23.390625 L 23.109375 23.34375 M 0.890625 23.390625 L 0.9375 23.4375 L 0.890625 23.390625 M 23.0625 23.390625 L 23.109375 23.4375 L 23.0625 23.390625 M 0.96875 23.453125 L 1 23.46875 L 0.96875 23.453125 M 23 23.453125 L 23.03125 23.46875 L 23 23.453125 M 1.03125 23.484375 L 1.078125 23.53125 L 1.03125 23.484375 M 22.921875 23.484375 L 22.96875 23.53125 L 22.921875 23.484375 M 1.078125 23.53125 L 1.125 23.578125 L 1.078125 23.53125 M 22.875 23.53125 L 22.921875 23.578125 L 22.875 23.53125 M 22.828125 23.578125 L 22.875 23.625 L 22.828125 23.578125 M 22.734375 23.625 L 22.78125 23.671875 L 22.734375 23.625 M 1.3125 23.671875 L 1.359375 23.71875 L 1.3125 23.671875 M 22.671875 23.6875 L 22.703125 23.703125 L 22.671875 23.6875 M 22.59375 23.71875 L 22.640625 23.765625 L 22.59375 23.71875 M 1.453125 23.765625 L 1.5 23.8125 L 1.453125 23.765625 M 22.5 23.765625 L 22.546875 23.8125 L 22.5 23.765625 M 1.53125 23.828125 L 1.5625 23.84375 L 1.53125 23.828125 M 22.4375 23.828125 L 22.46875 23.84375 L 22.4375 23.828125 M 1.625 23.875 L 1.65625 23.890625 L 1.625 23.875 M 22.34375 23.875 L 22.375 23.890625 L 22.34375 23.875 M 1.765625 23.921875 L 1.796875 23.9375 L 1.765625 23.921875 M 1.875 23.90625 L 1.875 23.953125 L 22.125 23.953125 C 21.65625 23.757812 20.855469 23.90625 20.34375 23.90625 L 1.875 23.90625 M 22.171875 23.90625 L 22.171875 23.953125 L 22.3125 23.953125 Z M 22.171875 23.90625 "/>
</g>
</svg>
